<?xml version="1.0" encoding="UTF-8" standalone="no"?>
<!-- Created with Inkscape (http://www.inkscape.org/) -->

<svg
   width="1920"
   height="1080"
   viewBox="0 0 507.99999 285.75"
   version="1.1"
   id="svg1"
   xml:space="preserve"
   xmlns="http://www.w3.org/2000/svg"
   xmlns:svg="http://www.w3.org/2000/svg"><defs
     id="defs1" /><g
     id="layer1"><g
       style="fill:#e8eaed;stroke-width:0.232368"
       id="g1"
       transform="matrix(0.02870708,0,0,0.02822681,135.78698,69.322699)"><path
         d="m 2681.1455,2175.1339 q 25,0 42.5,-17.5 17.5,-17.5 17.5,-42.5 0,-25 -17.5,-42.5 -17.5,-17.5 -42.5,-17.5 -25,0 -42.5,17.5 -17.5,17.5 -17.5,42.5 0,25 17.5,42.5 17.5,17.5 42.5,17.5 z m -280,0 q 25,0 42.5,-17.5 17.5,-17.5 17.5,-42.5 0,-25 -17.5,-42.5 -17.5,-17.5 -42.5,-17.5 -25,0 -42.5,17.5 -17.5,17.5 -17.5,42.5 0,25 17.5,42.5 17.5,17.5 42.5,17.5 z m 140,260 q 68,0 123.5,-38.5 55.5,-38.5 80.5,-101.5 h -66 q -22,37 -58.5,58.5 -36.5,21.5 -79.5,21.5 -43,0 -79.5,-21.5 -36.5,-21.5 -58.5,-58.5 h -66 q 25,63 80.5,101.5 55.5,38.5 123.5,38.5 z m 0,180 q -83,0 -156,-31.5 -73,-31.5 -127,-85.5 -54,-54 -85.5,-127 -31.5,-73 -31.5,-156 0,-83 31.5,-156 31.5,-73 85.5,-127 54,-54 127,-85.5 73,-31.5 156,-31.5 83,0 156,31.5 73,31.5 127,85.5 54,54 85.5,127 31.5,73 31.5,156 0,83 -31.5,156 -31.5,73 -85.5,127 -54,54 -127,85.5 -73,31.5 -156,31.5 z m 0,-400 z m 0,320 q 134,0 227,-93 93,-93 93,-227 0,-134 -93,-227 -93,-93 -227,-93 -134,0 -227,93 -93,93 -93,227 0,134 93,227 93,93 227,93 z"
         id="path1"
         style="stroke-width:0.232368" /></g><g
       style="fill:#e8eaed;stroke-width:0.232368"
       id="g2"
       transform="matrix(0.02870708,0,0,0.02822681,443.54507,43.580136)"><path
         d="m 620,-520 q 25,0 42.5,-17.5 Q 680,-555 680,-580 680,-605 662.5,-622.5 645,-640 620,-640 q -25,0 -42.5,17.5 -17.5,17.5 -17.5,42.5 0,25 17.5,42.5 17.5,17.5 42.5,17.5 z m -280,0 q 25,0 42.5,-17.5 Q 400,-555 400,-580 400,-605 382.5,-622.5 365,-640 340,-640 q -25,0 -42.5,17.5 -17.5,17.5 -17.5,42.5 0,25 17.5,42.5 17.5,17.5 42.5,17.5 z m 140,260 q 68,0 123.5,-38.5 Q 659,-337 684,-400 h -66 q -22,37 -58.5,58.5 Q 523,-320 480,-320 437,-320 400.5,-341.5 364,-363 342,-400 h -66 q 25,63 80.5,101.5 Q 412,-260 480,-260 Z m 0,180 Q 397,-80 324,-111.5 251,-143 197,-197 143,-251 111.5,-324 80,-397 80,-480 q 0,-83 31.5,-156 31.5,-73 85.5,-127 54,-54 127,-85.5 73,-31.5 156,-31.5 83,0 156,31.5 73,31.5 127,85.5 54,54 85.5,127 31.5,73 31.5,156 0,83 -31.5,156 -31.5,73 -85.5,127 -54,54 -127,85.5 Q 563,-80 480,-80 Z m 0,-400 z m 0,320 q 134,0 227,-93 93,-93 93,-227 0,-134 -93,-227 -93,-93 -227,-93 -134,0 -227,93 -93,93 -93,227 0,134 93,227 93,93 227,93 z"
         id="path2"
         style="stroke-width:0.232368" /></g><g
       style="fill:#e8eaed;stroke-width:0.232368"
       id="g3"
       transform="matrix(0.02870708,0,0,0.02822681,6.6899552,75.085957)"><path
         d="m 620,-520 q 25,0 42.5,-17.5 Q 680,-555 680,-580 680,-605 662.5,-622.5 645,-640 620,-640 q -25,0 -42.5,17.5 -17.5,17.5 -17.5,42.5 0,25 17.5,42.5 17.5,17.5 42.5,17.5 z m -280,0 q 25,0 42.5,-17.5 Q 400,-555 400,-580 400,-605 382.5,-622.5 365,-640 340,-640 q -25,0 -42.5,17.5 -17.5,17.5 -17.5,42.5 0,25 17.5,42.5 17.5,17.5 42.5,17.5 z m 140,260 q 68,0 123.5,-38.5 Q 659,-337 684,-400 h -66 q -22,37 -58.5,58.5 Q 523,-320 480,-320 437,-320 400.5,-341.5 364,-363 342,-400 h -66 q 25,63 80.5,101.5 Q 412,-260 480,-260 Z m 0,180 Q 397,-80 324,-111.5 251,-143 197,-197 143,-251 111.5,-324 80,-397 80,-480 q 0,-83 31.5,-156 31.5,-73 85.5,-127 54,-54 127,-85.5 73,-31.5 156,-31.5 83,0 156,31.5 73,31.5 127,85.5 54,54 85.5,127 31.5,73 31.5,156 0,83 -31.5,156 -31.5,73 -85.5,127 -54,54 -127,85.5 Q 563,-80 480,-80 Z m 0,-400 z m 0,320 q 134,0 227,-93 93,-93 93,-227 0,-134 -93,-227 -93,-93 -227,-93 -134,0 -227,93 -93,93 -93,227 0,134 93,227 93,93 227,93 z"
         id="path3"
         style="stroke-width:0.232368" /></g><g
       style="fill:#e8eaed;stroke-width:0.232368"
       id="g4"
       transform="matrix(0.02870708,0,0,0.02822681,34.737821,247.21532)"><path
         d="m 620,-520 q 25,0 42.5,-17.5 Q 680,-555 680,-580 680,-605 662.5,-622.5 645,-640 620,-640 q -25,0 -42.5,17.5 -17.5,17.5 -17.5,42.5 0,25 17.5,42.5 17.5,17.5 42.5,17.5 z m -280,0 q 25,0 42.5,-17.5 Q 400,-555 400,-580 400,-605 382.5,-622.5 365,-640 340,-640 q -25,0 -42.5,17.5 -17.5,17.5 -17.5,42.5 0,25 17.5,42.5 17.5,17.5 42.5,17.5 z m 140,260 q 68,0 123.5,-38.5 Q 659,-337 684,-400 h -66 q -22,37 -58.5,58.5 Q 523,-320 480,-320 437,-320 400.5,-341.5 364,-363 342,-400 h -66 q 25,63 80.5,101.5 Q 412,-260 480,-260 Z m 0,180 Q 397,-80 324,-111.5 251,-143 197,-197 143,-251 111.5,-324 80,-397 80,-480 q 0,-83 31.5,-156 31.5,-73 85.5,-127 54,-54 127,-85.5 73,-31.5 156,-31.5 83,0 156,31.5 73,31.5 127,85.5 54,54 85.5,127 31.5,73 31.5,156 0,83 -31.5,156 -31.5,73 -85.5,127 -54,54 -127,85.5 Q 563,-80 480,-80 Z m 0,-400 z m 0,320 q 134,0 227,-93 93,-93 93,-227 0,-134 -93,-227 -93,-93 -227,-93 -134,0 -227,93 -93,93 -93,227 0,134 93,227 93,93 227,93 z"
         id="path4"
         style="stroke-width:0.232368" /></g><g
       style="fill:#e8eaed;stroke-width:0.232368"
       id="g5"
       transform="matrix(0.02870708,0,0,0.02822681,441.62398,266.04197)"><path
         d="m 620,-520 q 25,0 42.5,-17.5 Q 680,-555 680,-580 680,-605 662.5,-622.5 645,-640 620,-640 q -25,0 -42.5,17.5 -17.5,17.5 -17.5,42.5 0,25 17.5,42.5 17.5,17.5 42.5,17.5 z m -280,0 q 25,0 42.5,-17.5 Q 400,-555 400,-580 400,-605 382.5,-622.5 365,-640 340,-640 q -25,0 -42.5,17.5 -17.5,17.5 -17.5,42.5 0,25 17.5,42.5 17.5,17.5 42.5,17.5 z m 140,260 q 68,0 123.5,-38.5 Q 659,-337 684,-400 h -66 q -22,37 -58.5,58.5 Q 523,-320 480,-320 437,-320 400.5,-341.5 364,-363 342,-400 h -66 q 25,63 80.5,101.5 Q 412,-260 480,-260 Z m 0,180 Q 397,-80 324,-111.5 251,-143 197,-197 143,-251 111.5,-324 80,-397 80,-480 q 0,-83 31.5,-156 31.5,-73 85.5,-127 54,-54 127,-85.5 73,-31.5 156,-31.5 83,0 156,31.5 73,31.5 127,85.5 54,54 85.5,127 31.5,73 31.5,156 0,83 -31.5,156 -31.5,73 -85.5,127 -54,54 -127,85.5 Q 563,-80 480,-80 Z m 0,-400 z m 0,320 q 134,0 227,-93 93,-93 93,-227 0,-134 -93,-227 -93,-93 -227,-93 -134,0 -227,93 -93,93 -93,227 0,134 93,227 93,93 227,93 z"
         id="path5"
         style="stroke-width:0.232368" /></g><g
       style="fill:#e8eaed;stroke-width:0.21429"
       id="g6"
       transform="matrix(0.03062816,0,0,0.03110844,349.25812,169.44973)"><path
         d="m 620,-520 q 25,0 42.5,-17.5 Q 680,-555 680,-580 680,-605 662.5,-622.5 645,-640 620,-640 q -25,0 -42.5,17.5 -17.5,17.5 -17.5,42.5 0,25 17.5,42.5 17.5,17.5 42.5,17.5 z m -280,0 q 25,0 42.5,-17.5 Q 400,-555 400,-580 400,-605 382.5,-622.5 365,-640 340,-640 q -25,0 -42.5,17.5 -17.5,17.5 -17.5,42.5 0,25 17.5,42.5 17.5,17.5 42.5,17.5 z m 140,100 q -68,0 -123.5,38.5 Q 301,-343 276,-280 h 66 q 22,-37 58.5,-58.5 36.5,-21.5 79.5,-21.5 43,0 79.5,21.5 36.5,21.5 58.5,58.5 h 66 Q 659,-343 603.5,-381.5 548,-420 480,-420 Z m 0,340 Q 397,-80 324,-111.5 251,-143 197,-197 143,-251 111.5,-324 80,-397 80,-480 q 0,-83 31.5,-156 31.5,-73 85.5,-127 54,-54 127,-85.5 73,-31.5 156,-31.5 83,0 156,31.5 73,31.5 127,85.5 54,54 85.5,127 31.5,73 31.5,156 0,83 -31.5,156 -31.5,73 -85.5,127 -54,54 -127,85.5 Q 563,-80 480,-80 Z m 0,-400 z m 0,320 q 134,0 227,-93 93,-93 93,-227 0,-134 -93,-227 -93,-93 -227,-93 -134,0 -227,93 -93,93 -93,227 0,134 93,227 93,93 227,93 z"
         id="path1-4"
         style="stroke-width:0.21429" /></g><g
       style="fill:#e8eaed;stroke-width:0.222985"
       id="g7"
       transform="matrix(0.02918734,0,0,0.0301479,86.568732,116.73511)"><path
         d="m 620,-520 q 25,0 42.5,-17.5 Q 680,-555 680,-580 680,-605 662.5,-622.5 645,-640 620,-640 q -25,0 -42.5,17.5 -17.5,17.5 -17.5,42.5 0,25 17.5,42.5 17.5,17.5 42.5,17.5 z m -280,0 q 25,0 42.5,-17.5 Q 400,-555 400,-580 400,-605 382.5,-622.5 365,-640 340,-640 q -25,0 -42.5,17.5 -17.5,17.5 -17.5,42.5 0,25 17.5,42.5 17.5,17.5 42.5,17.5 z m 140,100 q -68,0 -123.5,38.5 Q 301,-343 276,-280 h 66 q 22,-37 58.5,-58.5 36.5,-21.5 79.5,-21.5 43,0 79.5,21.5 36.5,21.5 58.5,58.5 h 66 Q 659,-343 603.5,-381.5 548,-420 480,-420 Z m 0,340 Q 397,-80 324,-111.5 251,-143 197,-197 143,-251 111.5,-324 80,-397 80,-480 q 0,-83 31.5,-156 31.5,-73 85.5,-127 54,-54 127,-85.5 73,-31.5 156,-31.5 83,0 156,31.5 73,31.5 127,85.5 54,54 85.5,127 31.5,73 31.5,156 0,83 -31.5,156 -31.5,73 -85.5,127 -54,54 -127,85.5 Q 563,-80 480,-80 Z m 0,-400 z m 0,320 q 134,0 227,-93 93,-93 93,-227 0,-134 -93,-227 -93,-93 -227,-93 -134,0 -227,93 -93,93 -93,227 0,134 93,227 93,93 227,93 z"
         id="path6"
         style="stroke-width:0.222985" /></g><g
       style="fill:#e8eaed;stroke-width:0.21429"
       id="g8"
       transform="matrix(0.03062816,0,0,0.03110844,148.69668,270.4989)"><path
         d="m 620,-520 q 25,0 42.5,-17.5 Q 680,-555 680,-580 680,-605 662.5,-622.5 645,-640 620,-640 q -25,0 -42.5,17.5 -17.5,17.5 -17.5,42.5 0,25 17.5,42.5 17.5,17.5 42.5,17.5 z m -280,0 q 25,0 42.5,-17.5 Q 400,-555 400,-580 400,-605 382.5,-622.5 365,-640 340,-640 q -25,0 -42.5,17.5 -17.5,17.5 -17.5,42.5 0,25 17.5,42.5 17.5,17.5 42.5,17.5 z m 140,100 q -68,0 -123.5,38.5 Q 301,-343 276,-280 h 66 q 22,-37 58.5,-58.5 36.5,-21.5 79.5,-21.5 43,0 79.5,21.5 36.5,21.5 58.5,58.5 h 66 Q 659,-343 603.5,-381.5 548,-420 480,-420 Z m 0,340 Q 397,-80 324,-111.5 251,-143 197,-197 143,-251 111.5,-324 80,-397 80,-480 q 0,-83 31.5,-156 31.5,-73 85.5,-127 54,-54 127,-85.5 73,-31.5 156,-31.5 83,0 156,31.5 73,31.5 127,85.5 54,54 85.5,127 31.5,73 31.5,156 0,83 -31.5,156 -31.5,73 -85.5,127 -54,54 -127,85.5 Q 563,-80 480,-80 Z m 0,-400 z m 0,320 q 134,0 227,-93 93,-93 93,-227 0,-134 -93,-227 -93,-93 -227,-93 -134,0 -227,93 -93,93 -93,227 0,134 93,227 93,93 227,93 z"
         id="path7"
         style="stroke-width:0.21429" /></g><g
       style="fill:#e8eaed;stroke-width:0.21429"
       id="g9"
       transform="matrix(0.03062816,0,0,0.03110844,314.67857,248.59851)"><path
         d="m 620,-520 q 25,0 42.5,-17.5 Q 680,-555 680,-580 680,-605 662.5,-622.5 645,-640 620,-640 q -25,0 -42.5,17.5 -17.5,17.5 -17.5,42.5 0,25 17.5,42.5 17.5,17.5 42.5,17.5 z m -280,0 q 25,0 42.5,-17.5 Q 400,-555 400,-580 400,-605 382.5,-622.5 365,-640 340,-640 q -25,0 -42.5,17.5 -17.5,17.5 -17.5,42.5 0,25 17.5,42.5 17.5,17.5 42.5,17.5 z m 140,100 q -68,0 -123.5,38.5 Q 301,-343 276,-280 h 66 q 22,-37 58.5,-58.5 36.5,-21.5 79.5,-21.5 43,0 79.5,21.5 36.5,21.5 58.5,58.5 h 66 Q 659,-343 603.5,-381.5 548,-420 480,-420 Z m 0,340 Q 397,-80 324,-111.5 251,-143 197,-197 143,-251 111.5,-324 80,-397 80,-480 q 0,-83 31.5,-156 31.5,-73 85.5,-127 54,-54 127,-85.5 73,-31.5 156,-31.5 83,0 156,31.5 73,31.5 127,85.5 54,54 85.5,127 31.5,73 31.5,156 0,83 -31.5,156 -31.5,73 -85.5,127 -54,54 -127,85.5 Q 563,-80 480,-80 Z m 0,-400 z m 0,320 q 134,0 227,-93 93,-93 93,-227 0,-134 -93,-227 -93,-93 -227,-93 -134,0 -227,93 -93,93 -93,227 0,134 93,227 93,93 227,93 z"
         id="path8"
         style="stroke-width:0.21429" /></g><g
       style="fill:#e8eaed;stroke-width:0.21429"
       id="g10"
       transform="matrix(0.03062816,0,0,0.03110844,318.13653,40.352714)"><path
         d="m 620,-520 q 25,0 42.5,-17.5 Q 680,-555 680,-580 680,-605 662.5,-622.5 645,-640 620,-640 q -25,0 -42.5,17.5 -17.5,17.5 -17.5,42.5 0,25 17.5,42.5 17.5,17.5 42.5,17.5 z m -280,0 q 25,0 42.5,-17.5 Q 400,-555 400,-580 400,-605 382.5,-622.5 365,-640 340,-640 q -25,0 -42.5,17.5 -17.5,17.5 -17.5,42.5 0,25 17.5,42.5 17.5,17.5 42.5,17.5 z m 140,100 q -68,0 -123.5,38.5 Q 301,-343 276,-280 h 66 q 22,-37 58.5,-58.5 36.5,-21.5 79.5,-21.5 43,0 79.5,21.5 36.5,21.5 58.5,58.5 h 66 Q 659,-343 603.5,-381.5 548,-420 480,-420 Z m 0,340 Q 397,-80 324,-111.5 251,-143 197,-197 143,-251 111.5,-324 80,-397 80,-480 q 0,-83 31.5,-156 31.5,-73 85.5,-127 54,-54 127,-85.5 73,-31.5 156,-31.5 83,0 156,31.5 73,31.5 127,85.5 54,54 85.5,127 31.5,73 31.5,156 0,83 -31.5,156 -31.5,73 -85.5,127 -54,54 -127,85.5 Q 563,-80 480,-80 Z m 0,-400 z m 0,320 q 134,0 227,-93 93,-93 93,-227 0,-134 -93,-227 -93,-93 -227,-93 -134,0 -227,93 -93,93 -93,227 0,134 93,227 93,93 227,93 z"
         id="path9"
         style="stroke-width:0.21429" /></g><g
       style="fill:#e8eaed;stroke-width:0.236768"
       id="g11"
       transform="matrix(0.02674025,0,0,0.02918735,234.17168,179.1809)"><path
         d="m -2196.8059,-3647.9066 h -440 v -520 l 280,-280 50,50 q 7,7 11.5,19 4.5,12 4.5,23 v 14 l -44,174 h 258 q 32,0 56,24 24,24 24,56 v 80 q 0,7 -2,15 -2,8 -4,15 l -120,282 q -9,20 -30,34 -21,14 -44,14 z m -360,-80 h 360 l 120,-280 v -80 h -360 l 54,-220 -174,174 z m 0,-406 v 406 z m -80,-34 v 80 h -120 v 360 h 120 v 80 h -200 v -520 z"
         id="path1-7"
         style="stroke-width:0.236768" /></g><g
       style="fill:#e8eaed;stroke-width:0.236768"
       id="g12"
       transform="matrix(0.02674025,0,0,0.02918735,378.6374,92.731999)"><path
         d="M 720,-120 H 280 v -520 l 280,-280 50,50 q 7,7 11.5,19 4.5,12 4.5,23 v 14 l -44,174 h 258 q 32,0 56,24 24,24 24,56 v 80 q 0,7 -2,15 -2,8 -4,15 l -120,282 q -9,20 -30,34 -21,14 -44,14 z m -360,-80 h 360 l 120,-280 v -80 H 480 l 54,-220 -174,174 z m 0,-406 v 406 z m -80,-34 v 80 H 160 v 360 h 120 v 80 H 80 v -520 z"
         id="path11"
         style="stroke-width:0.236768" /></g><g
       style="fill:#e8eaed;stroke-width:0.236768"
       id="g13"
       transform="matrix(0.02674025,0,0,0.02918735,109.68526,193.78116)"><path
         d="M 720,-120 H 280 v -520 l 280,-280 50,50 q 7,7 11.5,19 4.5,12 4.5,23 v 14 l -44,174 h 258 q 32,0 56,24 24,24 24,56 v 80 q 0,7 -2,15 -2,8 -4,15 l -120,282 q -9,20 -30,34 -21,14 -44,14 z m -360,-80 h 360 l 120,-280 v -80 H 480 l 54,-220 -174,174 z m 0,-406 v 406 z m -80,-34 v 80 H 160 v 360 h 120 v 80 H 80 v -520 z"
         id="path12"
         style="stroke-width:0.236768" /></g><g
       style="fill:#e8eaed;stroke-width:0.236768"
       id="g14"
       transform="matrix(0.02674025,0,0,0.02918735,231.09793,210.68672)"><path
         d="M 720,-120 H 280 v -520 l 280,-280 50,50 q 7,7 11.5,19 4.5,12 4.5,23 v 14 l -44,174 h 258 q 32,0 56,24 24,24 24,56 v 80 q 0,7 -2,15 -2,8 -4,15 l -120,282 q -9,20 -30,34 -21,14 -44,14 z m -360,-80 h 360 l 120,-280 v -80 H 480 l 54,-220 -174,174 z m 0,-406 v 406 z m -80,-34 v 80 H 160 v 360 h 120 v 80 H 80 v -520 z"
         id="path13"
         style="stroke-width:0.236768" /></g><g
       style="fill:#e8eaed;stroke-width:0.2386"
       id="g15"
       transform="matrix(0.02918735,0,0,0.026331,285.97754,121.84168)"><path
         d="m 354,-287 126,-76 126,77 -33,-144 111,-96 -146,-13 -58,-136 -58,135 -146,13 111,97 z m -121,167 65,-281 -218,-189 288,-25 112,-265 112,265 288,25 -218,189 65,281 -247,-149 z m 247,-350 z"
         id="path1-2"
         style="stroke-width:0.2386" /></g><g
       style="fill:#e8eaed;stroke-width:0.2386"
       id="g16"
       transform="matrix(0.02918735,0,0,0.026331,454.64895,118.76794)"><path
         d="m 354,-287 126,-76 126,77 -33,-144 111,-96 -146,-13 -58,-136 -58,135 -146,13 111,97 z m -121,167 65,-281 -218,-189 288,-25 112,-265 112,265 288,25 -218,189 65,281 -247,-149 z m 247,-350 z"
         id="path15"
         style="stroke-width:0.2386" /></g><g
       style="fill:#e8eaed;stroke-width:0.2386"
       id="g17"
       transform="matrix(0.02918735,0,0,0.026331,220.6606,32.319044)"><path
         d="m 354,-287 126,-76 126,77 -33,-144 111,-96 -146,-13 -58,-136 -58,135 -146,13 111,97 z m -121,167 65,-281 -218,-189 288,-25 112,-265 112,265 288,25 -218,189 65,281 -247,-149 z m 247,-350 z"
         id="path16"
         style="stroke-width:0.2386" /></g><g
       style="fill:#e8eaed;stroke-width:0.2386"
       id="g18"
       transform="matrix(0.02918735,0,0,0.026331,389.33201,244.40701)"><path
         d="m 354,-287 126,-76 126,77 -33,-144 111,-96 -146,-13 -58,-136 -58,135 -146,13 111,97 z m -121,167 65,-281 -218,-189 288,-25 112,-265 112,265 288,25 -218,189 65,281 -247,-149 z m 247,-350 z"
         id="path17"
         style="stroke-width:0.2386" /></g><g
       style="fill:#e8eaed;stroke-width:0.2386"
       id="g19"
       transform="matrix(0.02918735,0,0,0.026331,13.951669,163.72137)"><path
         d="m 354,-287 126,-76 126,77 -33,-144 111,-96 -146,-13 -58,-136 -58,135 -146,13 111,97 z m -121,167 65,-281 -218,-189 288,-25 112,-265 112,265 288,25 -218,189 65,281 -247,-149 z m 247,-350 z"
         id="path18"
         style="stroke-width:0.2386" /></g><g
       style="fill:#e8eaed;stroke-width:0.2386"
       id="g20"
       transform="matrix(0.02918735,0,0,0.026331,230.26603,278.21814)"><path
         d="m 354,-287 126,-76 126,77 -33,-144 111,-96 -146,-13 -58,-136 -58,135 -146,13 111,97 z m -121,167 65,-281 -218,-189 288,-25 112,-265 112,265 288,25 -218,189 65,281 -247,-149 z m 247,-350 z"
         id="path20"
         style="stroke-width:0.2386" /></g><g
       style="fill:#e8eaed;stroke-width:0.2386"
       id="g21"
       transform="matrix(0.02918735,0,0,0.026331,71.968488,26.171568)"><path
         d="m 354,-287 126,-76 126,77 -33,-144 111,-96 -146,-13 -58,-136 -58,135 -146,13 111,97 z m -121,167 65,-281 -218,-189 288,-25 112,-265 112,265 288,25 -218,189 65,281 -247,-149 z m 247,-350 z"
         id="path21"
         style="stroke-width:0.2386" /></g><g
       style="fill:#e8eaed;stroke-width:0.236768"
       id="g22"
       transform="matrix(0.02674025,0,0,0.02918735,433.9647,188.78633)"><path
         d="M 720,-120 H 280 v -520 l 280,-280 50,50 q 7,7 11.5,19 4.5,12 4.5,23 v 14 l -44,174 h 258 q 32,0 56,24 24,24 24,56 v 80 q 0,7 -2,15 -2,8 -4,15 l -120,282 q -9,20 -30,34 -21,14 -44,14 z m -360,-80 h 360 l 120,-280 v -80 H 480 l 54,-220 -174,174 z m 0,-406 v 406 z m -80,-34 v 80 H 160 v 360 h 120 v 80 H 80 v -520 z"
         id="path22"
         style="stroke-width:0.236768" /></g></g></svg>
