<?xml version="1.0" encoding="utf-8"?>
<!-- Generator: Adobe Illustrator 27.5.0, SVG Export Plug-In . SVG Version: 6.00 Build 0)  -->
<svg version="1.1" xmlns="http://www.w3.org/2000/svg" xmlns:xlink="http://www.w3.org/1999/xlink" x="0px" y="0px"
	 viewBox="0 0 500 500" style="enable-background:new 0 0 500 500;" xml:space="preserve">
<g id="Monument">
	<g>
		<path style="fill:none;stroke:#9ABAE3;stroke-width:2.5;stroke-linecap:round;stroke-linejoin:round;stroke-miterlimit:10;" d="
			M389.987,232.755c0,0,1.052,91.875,17.654,144.13c19.23,60.527,53.276,92.525,53.276,92.525"/>
		<path style="fill:none;stroke:#9ABAE3;stroke-width:2.5;stroke-linecap:round;stroke-linejoin:round;stroke-miterlimit:10;" d="
			M377.014,232.755c0,0-1.052,91.875-17.654,144.13c-19.23,60.527-53.276,92.525-53.276,92.525"/>
		<path style="fill:none;stroke:#9ABAE3;stroke-width:2.5;stroke-linecap:round;stroke-linejoin:round;stroke-miterlimit:10;" d="
			M336.879,469.41c0.663-25.187,21.286-45.391,46.625-45.391c25.332,0,45.955,20.205,46.619,45.391"/>
		<path style="fill:#9ABAE3;" d="M422.432,412.982h-77.863c-3.313,0-5.999-2.686-5.999-5.999v-1.242
			c0-3.313,2.686-5.999,5.999-5.999h77.863c3.313,0,5.999,2.686,5.999,5.999v1.242C428.431,410.296,425.746,412.982,422.432,412.982
			z"/>
		<path style="fill:#9ABAE3;" d="M403.189,361.76h-39.374c-3.313,0-5.999-2.686-5.999-5.999v-1.242c0-3.313,2.686-5.999,5.999-5.999
			h39.374c3.313,0,5.999,2.686,5.999,5.999v1.242C409.188,359.075,406.503,361.76,403.189,361.76z"/>
		<path style="fill:#9ABAE3;" d="M392.151,232.599h-17.297c-1.433,0-2.595-1.162-2.595-2.595l0,0c0-1.433,1.162-2.595,2.595-2.595
			h17.297c1.433,0,2.595,1.162,2.595,2.595l0,0C394.746,231.437,393.584,232.599,392.151,232.599z"/>
		<path style="fill:#9ABAE3;" d="M390.574,224.717H376.43c-1.433,0-2.595-1.162-2.595-2.595l0,0c0-1.433,1.162-2.595,2.595-2.595
			h14.144c1.433,0,2.595,1.162,2.595,2.595l0,0C393.169,223.556,392.007,224.717,390.574,224.717z"/>
		<g>
			
				<line style="fill:none;stroke:#9ABAE3;stroke-width:2.5;stroke-linecap:round;stroke-linejoin:round;stroke-miterlimit:10;" x1="376.719" y1="245.377" x2="390.285" y2="254.414"/>
			
				<line style="fill:none;stroke:#9ABAE3;stroke-width:2.5;stroke-linecap:round;stroke-linejoin:round;stroke-miterlimit:10;" x1="390.285" y1="245.377" x2="376.719" y2="254.414"/>
		</g>
		<g>
			
				<line style="fill:none;stroke:#9ABAE3;stroke-width:2.5;stroke-linecap:round;stroke-linejoin:round;stroke-miterlimit:10;" x1="376.719" y1="254.414" x2="390.285" y2="263.451"/>
			
				<line style="fill:none;stroke:#9ABAE3;stroke-width:2.5;stroke-linecap:round;stroke-linejoin:round;stroke-miterlimit:10;" x1="390.285" y1="254.414" x2="376.719" y2="263.451"/>
		</g>
		<g>
			
				<line style="fill:none;stroke:#9ABAE3;stroke-width:2.5;stroke-linecap:round;stroke-linejoin:round;stroke-miterlimit:10;" x1="376.322" y1="264.779" x2="391.923" y2="276.228"/>
			
				<line style="fill:none;stroke:#9ABAE3;stroke-width:2.5;stroke-linecap:round;stroke-linejoin:round;stroke-miterlimit:10;" x1="390.682" y1="264.779" x2="375.079" y2="276.228"/>
		</g>
		<g>
			
				<line style="fill:none;stroke:#9ABAE3;stroke-width:2.5;stroke-linecap:round;stroke-linejoin:round;stroke-miterlimit:10;" x1="375.486" y1="276.608" x2="392.903" y2="289.39"/>
			
				<line style="fill:none;stroke:#9ABAE3;stroke-width:2.5;stroke-linecap:round;stroke-linejoin:round;stroke-miterlimit:10;" x1="391.518" y1="276.608" x2="374.098" y2="289.39"/>
		</g>
		<g>
			
				<line style="fill:none;stroke:#9ABAE3;stroke-width:2.5;stroke-linecap:round;stroke-linejoin:round;stroke-miterlimit:10;" x1="374.722" y1="290.056" x2="393.799" y2="304.056"/>
			
				<line style="fill:none;stroke:#9ABAE3;stroke-width:2.5;stroke-linecap:round;stroke-linejoin:round;stroke-miterlimit:10;" x1="392.283" y1="290.056" x2="373.202" y2="304.056"/>
		</g>
		<g>
			
				<line style="fill:none;stroke:#9ABAE3;stroke-width:2.5;stroke-linecap:round;stroke-linejoin:round;stroke-miterlimit:10;" x1="373.02" y1="305.011" x2="395.796" y2="321.726"/>
			
				<line style="fill:none;stroke:#9ABAE3;stroke-width:2.5;stroke-linecap:round;stroke-linejoin:round;stroke-miterlimit:10;" x1="393.985" y1="305.011" x2="371.205" y2="321.726"/>
		</g>
		<g>
			
				<line style="fill:none;stroke:#9ABAE3;stroke-width:2.5;stroke-linecap:round;stroke-linejoin:round;stroke-miterlimit:10;" x1="370.793" y1="322.433" x2="400.618" y2="348.324"/>
			
				<line style="fill:none;stroke:#9ABAE3;stroke-width:2.5;stroke-linecap:round;stroke-linejoin:round;stroke-miterlimit:10;" x1="396.214" y1="322.433" x2="366.345" y2="348.52"/>
		</g>
		
			<line style="fill:none;stroke:#9ABAE3;stroke-width:2.5;stroke-linecap:round;stroke-linejoin:round;stroke-miterlimit:10;" x1="311.919" y1="463.221" x2="339.047" y2="456.521"/>
		
			<line style="fill:none;stroke:#9ABAE3;stroke-width:2.5;stroke-linecap:round;stroke-linejoin:round;stroke-miterlimit:10;" x1="318.203" y1="455.671" x2="336.879" y2="463.221"/>
		
			<line style="fill:none;stroke:#9ABAE3;stroke-width:2.5;stroke-linecap:round;stroke-linejoin:round;stroke-miterlimit:10;" x1="318.203" y1="455.671" x2="341.783" y2="449.786"/>
		
			<line style="fill:none;stroke:#9ABAE3;stroke-width:2.5;stroke-linecap:round;stroke-linejoin:round;stroke-miterlimit:10;" x1="323.046" y1="449.291" x2="347.249" y2="440.881"/>
		
			<line style="fill:none;stroke:#9ABAE3;stroke-width:2.5;stroke-linecap:round;stroke-linejoin:round;stroke-miterlimit:10;" x1="328.631" y1="441.28" x2="354.552" y2="433.559"/>
		
			<line style="fill:none;stroke:#9ABAE3;stroke-width:2.5;stroke-linecap:round;stroke-linejoin:round;stroke-miterlimit:10;" x1="342.883" y1="418.121" x2="366.917" y2="412.982"/>
		
			<line style="fill:none;stroke:#9ABAE3;stroke-width:2.5;stroke-linecap:round;stroke-linejoin:round;stroke-miterlimit:10;" x1="338.57" y1="425.46" x2="370.166" y2="416.606"/>
		
			<line style="fill:none;stroke:#9ABAE3;stroke-width:2.5;stroke-linecap:round;stroke-linejoin:round;stroke-miterlimit:10;" x1="334.548" y1="433.559" x2="374.112" y2="421.007"/>
		
			<line style="fill:none;stroke:#9ABAE3;stroke-width:2.5;stroke-linecap:round;stroke-linejoin:round;stroke-miterlimit:10;" x1="323.046" y1="449.291" x2="339.047" y2="456.521"/>
		
			<line style="fill:none;stroke:#9ABAE3;stroke-width:2.5;stroke-linecap:round;stroke-linejoin:round;stroke-miterlimit:10;" x1="328.631" y1="441.28" x2="341.549" y2="449.24"/>
		
			<line style="fill:none;stroke:#9ABAE3;stroke-width:2.5;stroke-linecap:round;stroke-linejoin:round;stroke-miterlimit:10;" x1="334.011" y1="433.483" x2="347.249" y2="440.881"/>
		
			<line style="fill:none;stroke:#9ABAE3;stroke-width:2.5;stroke-linecap:round;stroke-linejoin:round;stroke-miterlimit:10;" x1="338.57" y1="425.839" x2="354.552" y2="433.559"/>
		
			<line style="fill:none;stroke:#9ABAE3;stroke-width:2.5;stroke-linecap:round;stroke-linejoin:round;stroke-miterlimit:10;" x1="349.765" y1="412.156" x2="377.174" y2="424.423"/>
		
			<line style="fill:none;stroke:#9ABAE3;stroke-width:2.5;stroke-linecap:round;stroke-linejoin:round;stroke-miterlimit:10;" x1="342.368" y1="418.38" x2="364.684" y2="427.971"/>
		<rect x="376.868" y="232.268" style="fill:#9ABAE3;" width="13.268" height="12.778"/>
		<g>
			<path style="fill:#9ABAE3;" d="M378.559,359.905h-14.604c0,0-6.846,29.16-13.144,40.351h20.286
				C371.096,400.256,374.613,388.749,378.559,359.905z"/>
			<path style="fill:#9ABAE3;" d="M388.443,359.905h14.604c0,0,6.846,29.16,13.144,40.351h-20.286
				C395.905,400.256,392.388,388.749,388.443,359.905z"/>
		</g>
		
			<line style="fill:none;stroke:#9ABAE3;stroke-width:2.5;stroke-linecap:round;stroke-linejoin:round;stroke-miterlimit:10;" x1="366.917" y1="412.982" x2="377.174" y2="424.423"/>
		
			<line style="fill:none;stroke:#9ABAE3;stroke-width:2.5;stroke-linecap:round;stroke-linejoin:round;stroke-miterlimit:10;" x1="455.076" y1="463.221" x2="427.948" y2="456.521"/>
		
			<line style="fill:none;stroke:#9ABAE3;stroke-width:2.5;stroke-linecap:round;stroke-linejoin:round;stroke-miterlimit:10;" x1="448.792" y1="455.671" x2="430.117" y2="463.221"/>
		
			<line style="fill:none;stroke:#9ABAE3;stroke-width:2.5;stroke-linecap:round;stroke-linejoin:round;stroke-miterlimit:10;" x1="448.792" y1="455.671" x2="425.213" y2="449.786"/>
		
			<line style="fill:none;stroke:#9ABAE3;stroke-width:2.5;stroke-linecap:round;stroke-linejoin:round;stroke-miterlimit:10;" x1="443.949" y1="449.291" x2="419.747" y2="440.881"/>
		
			<line style="fill:none;stroke:#9ABAE3;stroke-width:2.5;stroke-linecap:round;stroke-linejoin:round;stroke-miterlimit:10;" x1="438.364" y1="441.28" x2="412.444" y2="433.559"/>
		
			<line style="fill:none;stroke:#9ABAE3;stroke-width:2.5;stroke-linecap:round;stroke-linejoin:round;stroke-miterlimit:10;" x1="424.112" y1="418.121" x2="400.079" y2="412.982"/>
		
			<line style="fill:none;stroke:#9ABAE3;stroke-width:2.5;stroke-linecap:round;stroke-linejoin:round;stroke-miterlimit:10;" x1="428.426" y1="425.46" x2="396.829" y2="416.606"/>
		
			<line style="fill:none;stroke:#9ABAE3;stroke-width:2.5;stroke-linecap:round;stroke-linejoin:round;stroke-miterlimit:10;" x1="432.447" y1="433.559" x2="392.884" y2="421.007"/>
		
			<line style="fill:none;stroke:#9ABAE3;stroke-width:2.5;stroke-linecap:round;stroke-linejoin:round;stroke-miterlimit:10;" x1="443.949" y1="449.291" x2="427.948" y2="456.521"/>
		
			<line style="fill:none;stroke:#9ABAE3;stroke-width:2.5;stroke-linecap:round;stroke-linejoin:round;stroke-miterlimit:10;" x1="438.364" y1="441.28" x2="425.446" y2="449.24"/>
		
			<line style="fill:none;stroke:#9ABAE3;stroke-width:2.5;stroke-linecap:round;stroke-linejoin:round;stroke-miterlimit:10;" x1="432.984" y1="433.483" x2="419.747" y2="440.881"/>
		
			<line style="fill:none;stroke:#9ABAE3;stroke-width:2.5;stroke-linecap:round;stroke-linejoin:round;stroke-miterlimit:10;" x1="428.426" y1="425.839" x2="412.444" y2="433.559"/>
		
			<line style="fill:none;stroke:#9ABAE3;stroke-width:2.5;stroke-linecap:round;stroke-linejoin:round;stroke-miterlimit:10;" x1="417.23" y1="412.156" x2="389.821" y2="424.423"/>
		
			<line style="fill:none;stroke:#9ABAE3;stroke-width:2.5;stroke-linecap:round;stroke-linejoin:round;stroke-miterlimit:10;" x1="424.627" y1="418.38" x2="402.311" y2="427.971"/>
		
			<line style="fill:none;stroke:#9ABAE3;stroke-width:2.5;stroke-linecap:round;stroke-linejoin:round;stroke-miterlimit:10;" x1="400.079" y1="412.982" x2="389.821" y2="424.423"/>
		
			<line style="fill:none;stroke:#9ABAE3;stroke-width:2.5;stroke-linecap:round;stroke-linejoin:round;stroke-miterlimit:10;" x1="400.079" y1="412.982" x2="389.821" y2="424.423"/>
		<path style="fill:#9ABAE3;" d="M383.502,211.777L383.502,211.777c-2.22,0-4.019,1.799-4.019,4.019v4.729h8.039v-4.729
			C387.521,213.577,385.722,211.777,383.502,211.777z"/>
		<path style="fill:#9ABAE3;" d="M383.502,196.015L383.502,196.015c-0.653,0-1.182,0.529-1.182,1.182v14.659
			c0,0.653,0.529,1.182,1.182,1.182l0,0c0.653,0,1.182-0.529,1.182-1.182v-14.659C384.684,196.544,384.155,196.015,383.502,196.015z
			"/>
	</g>
</g>
<g id="Floor">
	
		<line style="fill:none;stroke:#263238;stroke-width:2.5;stroke-linecap:round;stroke-linejoin:round;stroke-miterlimit:10;" x1="36.293" y1="470.307" x2="463.707" y2="470.307"/>
</g>
<g id="Speech_Bubbles">
	<g>
		<g>
			<g>
				<path style="fill:#9ABAE3;" d="M95.782,216.385c0,0,18.713,0.301,24.92,0.301c6.208,0,31.951,1.041,39.281-4.618
					c5.512-4.255,4.645-21.096,3.774-32.093c-0.484-6.105-6.772-10.747-12.677-11.29c-11.93-1.097-33.172-1.233-40.129-1.233
					c-9.139,0-41.198-2.676-46.869,5.38c-4.154,5.902-3.451,18.613-3.451,22.596c0,19.834,8.333,20.395,24.785,21.038
					c0,0,0.197,3.625,7.181,10.867c6.984,7.242,4.052,13.967,4.052,13.967s4.66-4.238,3.968-10.094
					C99.925,225.35,95.782,220.698,95.782,216.385z"/>
			</g>
			<g>
				<path style="fill:#FFFFFF;" d="M78.368,184.761h1.46l5.572,13.642h-1.845l-1.614-3.997h-5.726l-1.595,3.997h-1.844
					L78.368,184.761z M81.558,193.061l-2.459-6.302l-2.536,6.302H81.558z"/>
				<path style="fill:#FFFFFF;" d="M89.839,198.595c-1.051,0-1.845-0.352-2.383-1.057c-0.538-0.704-0.807-1.755-0.807-3.151v-6.014
					h1.691v5.688c0,2.05,0.711,3.074,2.133,3.074c0.692,0,1.342-0.221,1.95-0.663c0.608-0.442,1.06-1.047,1.355-1.816v-6.283h1.691
					v7.955c0,0.397,0.179,0.602,0.538,0.615v1.46c-0.192,0.026-0.343,0.042-0.451,0.048c-0.109,0.006-0.215,0.01-0.317,0.01
					c-0.333,0-0.612-0.099-0.836-0.298c-0.224-0.198-0.343-0.445-0.355-0.74l-0.039-1.172c-0.448,0.756-1.037,1.335-1.768,1.739
					C91.511,198.393,90.71,198.595,89.839,198.595z"/>
				<path style="fill:#FFFFFF;" d="M108.458,189.853c-0.845,0.026-1.592,0.243-2.238,0.653c-0.647,0.41-1.105,0.98-1.374,1.71v6.187
					h-1.691v-10.03h1.576v2.325c0.346-0.692,0.8-1.252,1.364-1.681c0.563-0.429,1.166-0.669,1.806-0.72c0.128,0,0.237,0,0.327,0
					c0.09,0,0.166,0.007,0.23,0.019V189.853z"/>
				<path style="fill:#FFFFFF;" d="M114.337,198.595c-0.756,0-1.448-0.138-2.075-0.413c-0.628-0.275-1.166-0.65-1.614-1.124
					c-0.448-0.474-0.797-1.028-1.047-1.662c-0.25-0.634-0.375-1.303-0.375-2.008c0-0.704,0.125-1.371,0.375-1.998
					c0.25-0.627,0.602-1.178,1.057-1.652c0.454-0.474,0.996-0.849,1.623-1.124c0.628-0.275,1.319-0.413,2.075-0.413
					c0.756,0,1.444,0.141,2.066,0.423c0.621,0.282,1.149,0.656,1.585,1.124c0.435,0.468,0.771,1.012,1.009,1.633
					c0.237,0.621,0.355,1.265,0.355,1.931c0,0.141-0.003,0.269-0.01,0.384c-0.006,0.115-0.016,0.205-0.029,0.269h-8.32
					c0.038,0.5,0.154,0.954,0.346,1.364c0.192,0.41,0.442,0.762,0.749,1.057c0.307,0.295,0.656,0.525,1.047,0.692
					c0.39,0.167,0.804,0.25,1.239,0.25c0.307,0,0.608-0.041,0.903-0.125c0.295-0.083,0.57-0.195,0.826-0.336
					c0.256-0.141,0.483-0.314,0.682-0.519c0.198-0.205,0.349-0.435,0.452-0.692l1.46,0.404c-0.167,0.372-0.394,0.711-0.682,1.018
					c-0.288,0.308-0.621,0.574-0.999,0.798c-0.378,0.224-0.798,0.401-1.259,0.528C115.317,198.531,114.837,198.595,114.337,198.595z
					 M117.777,192.715c-0.038-0.474-0.157-0.913-0.355-1.316c-0.199-0.403-0.449-0.746-0.749-1.028
					c-0.301-0.282-0.65-0.503-1.047-0.663c-0.397-0.16-0.82-0.24-1.268-0.24c-0.449,0-0.871,0.08-1.268,0.24
					c-0.397,0.16-0.746,0.384-1.047,0.673c-0.301,0.288-0.545,0.631-0.73,1.028c-0.186,0.397-0.298,0.833-0.336,1.307H117.777z"/>
				<path style="fill:#FFFFFF;" d="M123.887,198.403l-3.958-10.03h1.749l3.17,8.551l3.189-8.551h1.614l-3.958,10.03H123.887z"/>
				<path style="fill:#FFFFFF;" d="M135.358,198.595c-0.756,0-1.444-0.141-2.065-0.423c-0.622-0.281-1.153-0.66-1.595-1.134
					c-0.442-0.474-0.785-1.025-1.028-1.652c-0.243-0.627-0.365-1.287-0.365-1.979c0-0.704,0.125-1.37,0.375-1.998
					c0.25-0.628,0.596-1.178,1.038-1.653c0.442-0.474,0.973-0.852,1.595-1.134c0.621-0.282,1.303-0.423,2.046-0.423
					c0.743,0,1.428,0.141,2.056,0.423c0.628,0.282,1.162,0.66,1.604,1.134c0.442,0.474,0.788,1.025,1.037,1.653
					c0.25,0.628,0.375,1.294,0.375,1.998c0,0.692-0.122,1.352-0.365,1.979c-0.244,0.628-0.59,1.179-1.038,1.652
					c-0.448,0.474-0.983,0.852-1.604,1.134C136.802,198.454,136.114,198.595,135.358,198.595z M132.034,193.426
					c0,0.525,0.086,1.012,0.26,1.46c0.173,0.449,0.41,0.839,0.711,1.172c0.301,0.333,0.653,0.596,1.057,0.788
					c0.403,0.192,0.836,0.288,1.297,0.288c0.461,0,0.894-0.096,1.297-0.288c0.403-0.192,0.759-0.458,1.066-0.797
					c0.308-0.339,0.548-0.736,0.721-1.191c0.173-0.455,0.259-0.945,0.259-1.47c0-0.512-0.086-0.996-0.259-1.451
					c-0.173-0.455-0.413-0.852-0.721-1.191c-0.307-0.339-0.663-0.605-1.066-0.798c-0.403-0.192-0.836-0.288-1.297-0.288
					c-0.461,0-0.893,0.099-1.297,0.298c-0.404,0.199-0.756,0.468-1.057,0.807c-0.301,0.34-0.538,0.737-0.711,1.191
					C132.12,192.411,132.034,192.901,132.034,193.426z"/>
				<path style="fill:#FFFFFF;" d="M142.487,186.49v-2.114h1.691v2.114H142.487z M142.487,198.403v-10.03h1.691v10.03H142.487z"/>
				<path style="fill:#FFFFFF;" d="M152.209,189.853c-0.846,0.026-1.592,0.243-2.238,0.653c-0.647,0.41-1.105,0.98-1.374,1.71v6.187
					h-1.691v-10.03h1.575v2.325c0.346-0.692,0.801-1.252,1.364-1.681c0.564-0.429,1.165-0.669,1.806-0.72c0.128,0,0.237,0,0.327,0
					c0.09,0,0.166,0.007,0.231,0.019V189.853z"/>
			</g>
		</g>
		<g>
			<g>
				
					<path style="fill:#FFFFFF;stroke:#9ABAE3;stroke-width:2.5;stroke-linecap:round;stroke-linejoin:round;stroke-miterlimit:10;" d="
					M409.569,147.848c0,0-19.587,0.315-26.085,0.315c-6.498,0-24.482,1.592-30.644-5.641c-6.189-7.265-4.3-25.276-4.054-32.779
					c0.257-7.826,5.242-13.615,11.503-14.888c11.127-2.263,29.987-1.697,36.402-1.697c9.566,0,38.034-2.065,43.734,7.133
					c3.98,6.422,2.979,19.472,2.979,23.641c0,20.761-5.077,24.002-22.984,24.002c0,0-0.207,3.794-7.516,11.374
					c-7.31,7.581-4.242,14.62-4.242,14.62s-4.878-4.436-4.154-10.565C405.233,157.232,409.569,152.363,409.569,147.848z"/>
			</g>
			<g>
				<path style="fill:#9ABAE3;" d="M377.437,133.33c-1.973,0-3.771-0.387-5.393-1.161c-1.623-0.774-3.009-1.791-4.157-3.052
					c-1.149-1.261-2.041-2.702-2.678-4.326c-0.637-1.622-0.956-3.295-0.956-5.018c0-1.747,0.331-3.433,0.993-5.056
					c0.661-1.622,1.585-3.052,2.771-4.288c1.186-1.236,2.59-2.222,4.214-2.959c1.622-0.736,3.395-1.105,5.318-1.105
					c1.972,0,3.769,0.387,5.393,1.161c1.623,0.774,3.008,1.798,4.158,3.071c1.148,1.273,2.034,2.722,2.659,4.344
					c0.623,1.623,0.936,3.271,0.936,4.944c0,1.748-0.331,3.433-0.993,5.056c-0.661,1.623-1.579,3.052-2.752,4.288
					c-1.173,1.236-2.572,2.228-4.194,2.977C381.132,132.955,379.359,133.33,377.437,133.33z M370.509,119.847
					c0,1.024,0.149,2.017,0.449,2.978c0.3,0.961,0.743,1.816,1.33,2.565c0.586,0.749,1.317,1.348,2.19,1.798
					c0.874,0.449,1.873,0.674,2.997,0.674c1.173,0,2.197-0.237,3.07-0.712c0.874-0.474,1.598-1.092,2.173-1.854
					c0.573-0.761,1.005-1.623,1.292-2.584c0.286-0.961,0.43-1.941,0.43-2.94c0-1.024-0.149-2.016-0.449-2.977
					c-0.3-0.961-0.749-1.81-1.348-2.547c-0.599-0.736-1.329-1.323-2.19-1.76c-0.861-0.437-1.854-0.655-2.977-0.655
					c-1.174,0-2.191,0.231-3.053,0.693c-0.861,0.462-1.586,1.068-2.172,1.817c-0.587,0.749-1.024,1.604-1.311,2.565
					C370.652,117.869,370.509,118.849,370.509,119.847z"/>
				<path style="fill:#9ABAE3;" d="M399.719,133.48c-2.022,0-3.551-0.63-4.587-1.891c-1.036-1.261-1.555-3.115-1.555-5.561v-12.583
					h5.992v11.272c0,1.198,0.237,2.116,0.711,2.752c0.474,0.637,1.149,0.955,2.022,0.955c0.799,0,1.573-0.212,2.322-0.636
					c0.749-0.424,1.41-1.161,1.985-2.21v-12.134h5.992v12.92c0,0.599,0.094,1.017,0.281,1.254c0.188,0.238,0.518,0.381,0.993,0.431
					v5.056c-0.575,0.124-1.061,0.206-1.461,0.244c-0.4,0.037-0.762,0.056-1.086,0.056c-2.148,0-3.37-0.836-3.67-2.509l-0.113-1.198
					c-0.899,1.298-2.016,2.253-3.351,2.865C402.859,133.173,401.367,133.48,399.719,133.48z"/>
				<path style="fill:#9ABAE3;" d="M417.246,111.196v-5.43h5.992v5.43H417.246z M417.246,133.105v-19.661h5.992v19.661H417.246z"/>
			</g>
		</g>
		<g>
			<g>
				
					<path style="fill:#FFFFFF;stroke:#EC644E;stroke-width:2.5;stroke-linecap:round;stroke-linejoin:round;stroke-miterlimit:10;" d="
					M89.962,79.112c0,0,19.229,0.309,25.608,0.309s31.638,2.026,37.383-4.204c4.851-5.261,4.293-22.219,3.398-33.52
					c-0.497-6.273-6.959-11.043-13.027-11.601c-12.259-1.127-30.625-1.267-37.775-1.267c-9.391,0-39.645-2.75-45.472,5.528
					c-4.269,6.065-3.547,19.127-3.547,23.219c0,20.381,5.873,20.958,22.779,21.619c0,0,0.203,3.724,7.379,11.166
					c7.176,7.442,4.164,14.352,4.164,14.352s4.788-4.354,4.077-10.372C94.219,88.324,89.962,83.543,89.962,79.112z"/>
			</g>
			<g>
				<path style="fill:#EC644E;" d="M77.455,45.367h3.867l2.795,10.555l7.316-10.555h3.84l-3.945,18.55h-3.579l2.613-12.279
					l-6.297,9.145h-1.96l-2.404-9.145L77.09,63.917H73.51L77.455,45.367z"/>
				<path style="fill:#EC644E;" d="M100.734,64.178c-0.871,0-1.65-0.144-2.338-0.431c-0.688-0.287-1.276-0.688-1.764-1.202
					c-0.488-0.514-0.858-1.123-1.11-1.829c-0.253-0.705-0.379-1.476-0.379-2.312c0-1.132,0.222-2.208,0.666-3.227
					c0.444-1.019,1.054-1.911,1.829-2.678c0.775-0.766,1.689-1.376,2.743-1.829c1.054-0.453,2.19-0.679,3.409-0.679
					c1.48,0,2.661,0.327,3.54,0.98c0.879,0.653,1.319,1.598,1.319,2.835c0,2.944-2.63,4.416-7.89,4.416c-0.313,0-0.636,0-0.967,0
					c-0.331,0-0.679-0.017-1.045-0.052v0.34c0,0.924,0.209,1.672,0.627,2.247c0.418,0.575,1.08,0.862,1.986,0.862
					c0.697,0,1.354-0.165,1.973-0.496c0.618-0.331,1.11-0.792,1.476-1.385l2.77,0.862c-0.349,0.522-0.775,1.006-1.28,1.45
					c-0.506,0.444-1.058,0.823-1.659,1.136c-0.601,0.314-1.232,0.558-1.894,0.732C102.083,64.091,101.413,64.178,100.734,64.178z
					 M103.268,52.526c-0.505,0-0.976,0.092-1.411,0.275c-0.436,0.183-0.823,0.431-1.163,0.744c-0.339,0.314-0.64,0.679-0.901,1.097
					c-0.261,0.418-0.47,0.862-0.627,1.333c0.278,0.017,0.549,0.026,0.81,0.026c0.261,0,0.531,0,0.81,0
					c0.836,0,1.546-0.043,2.129-0.131c0.583-0.087,1.054-0.217,1.411-0.392c0.357-0.174,0.614-0.379,0.771-0.614
					c0.157-0.235,0.235-0.509,0.235-0.823c0-0.505-0.192-0.884-0.575-1.136C104.374,52.653,103.878,52.526,103.268,52.526z"/>
				<path style="fill:#EC644E;" d="M111.916,50.227h3.214l-0.627,2.926c0.661-0.941,1.402-1.685,2.221-2.234
					c0.819-0.549,1.637-0.823,2.456-0.823c0.174,0,0.305,0.004,0.392,0.013c0.087,0.009,0.165,0.022,0.235,0.039l-0.653,3.109
					c-0.993,0.017-1.929,0.222-2.809,0.614c-0.88,0.392-1.572,0.98-2.077,1.764l-1.75,8.282h-3.501L111.916,50.227z"/>
				<path style="fill:#EC644E;" d="M124.274,64.178c-0.906,0-1.707-0.153-2.404-0.457c-0.697-0.305-1.28-0.719-1.75-1.241
					c-0.47-0.522-0.823-1.132-1.058-1.829c-0.235-0.696-0.353-1.437-0.353-2.221c0-1.08,0.213-2.129,0.64-3.148
					c0.426-1.019,1.019-1.92,1.777-2.704c0.757-0.784,1.663-1.411,2.717-1.881c1.054-0.47,2.199-0.705,3.436-0.705
					c1.446,0,2.6,0.322,3.462,0.967c0.862,0.645,1.432,1.489,1.711,2.534l-3.605,1.045c-0.174-0.505-0.453-0.893-0.836-1.163
					c-0.384-0.27-0.854-0.405-1.411-0.405c-0.54,0-1.067,0.126-1.58,0.379c-0.514,0.253-0.967,0.605-1.359,1.058
					c-0.392,0.453-0.71,0.989-0.954,1.607c-0.244,0.618-0.366,1.285-0.366,1.999c0,0.941,0.231,1.707,0.692,2.299
					c0.461,0.592,1.075,0.888,1.842,0.888c0.557,0,1.11-0.157,1.659-0.47c0.549-0.314,0.971-0.697,1.267-1.149l3.187,1.045
					c-0.679,1.045-1.603,1.899-2.769,2.56C127.052,63.848,125.737,64.178,124.274,64.178z"/>
				<path style="fill:#EC644E;" d="M135.273,50.227h3.501l-2.9,13.69h-3.501L135.273,50.227z M136.423,44.845h3.501l-0.732,3.475
					h-3.501L136.423,44.845z"/>
			</g>
		</g>
		<g>
			<g>
				
					<path style="fill:#FFFFFF;stroke:#263238;stroke-width:2.5;stroke-linecap:round;stroke-linejoin:round;stroke-miterlimit:10;" d="
					M169.556,134.426c0,0,50.262,0.42,58.928,0.42c8.666,0,35.686,1.031,45.379-7.524c9.544-8.423,6.265-36.425,5.837-46.428
					c-0.415-9.698-6.704-15.678-13.358-17.271c-17.616-4.217-52.597-4.137-61.978-4.137c-9.491,0-42.628-0.55-56.573,1.934
					c-11.254,2.005-23.363,4.021-23.363,30.174c0,27.69-0.158,42.944,30.655,42.944c0,0,0.276,5.06,10.025,15.171
					c9.75,10.111,5.657,19.499,5.657,19.499s6.506-5.916,5.54-14.092C175.339,146.941,169.556,140.446,169.556,134.426z"/>
			</g>
			<g>
				<path style="fill:#EC644E;" d="M161.363,101.754c0,1.186-0.317,2.172-0.948,2.96c-0.631,0.787-1.482,1.375-2.551,1.764
					c-1.069,0.389-2.244,0.583-3.527,0.583h-10.089V86.359h11.518c0.972,0,1.812,0.258,2.522,0.772
					c0.71,0.516,1.254,1.181,1.633,1.998c0.379,0.817,0.568,1.662,0.568,2.537c0,0.972-0.253,1.9-0.758,2.784
					c-0.506,0.885-1.245,1.55-2.216,1.997c1.185,0.35,2.123,0.973,2.814,1.867C161.018,99.208,161.363,100.354,161.363,101.754z
					 M149.029,90.441v4.286h4.694c0.349,0,0.674-0.077,0.977-0.233c0.3-0.155,0.548-0.393,0.743-0.714
					c0.194-0.32,0.292-0.724,0.292-1.21c0-0.466-0.083-0.855-0.249-1.166c-0.164-0.31-0.384-0.548-0.655-0.714
					c-0.273-0.165-0.584-0.248-0.934-0.248H149.029z M156.493,100.792c0-0.447-0.087-0.841-0.262-1.181
					c-0.175-0.34-0.404-0.612-0.686-0.817c-0.281-0.204-0.617-0.306-1.005-0.306h-5.51v4.519h5.307c0.407,0,0.772-0.097,1.093-0.291
					c0.32-0.194,0.578-0.457,0.772-0.787C156.396,101.598,156.493,101.219,156.493,100.792z"/>
				<path style="fill:#EC644E;" d="M171.101,107.352c-1.303,0-2.465-0.211-3.484-0.632c-1.021-0.422-1.881-0.996-2.581-1.724
					c-0.699-0.727-1.229-1.561-1.589-2.499c-0.36-0.939-0.54-1.925-0.54-2.959c0-1.054,0.18-2.05,0.54-2.988
					c0.36-0.939,0.89-1.771,1.589-2.5c0.7-0.727,1.56-1.302,2.581-1.723c1.02-0.422,2.181-0.633,3.484-0.633
					c1.302,0,2.459,0.211,3.469,0.633c1.011,0.421,1.867,0.996,2.566,1.723c0.7,0.728,1.235,1.561,1.605,2.5
					c0.368,0.938,0.554,1.934,0.554,2.988c0,1.034-0.186,2.02-0.554,2.959c-0.369,0.939-0.904,1.772-1.605,2.499
					c-0.699,0.728-1.554,1.302-2.566,1.724C173.559,107.141,172.403,107.352,171.101,107.352z M167.689,99.538
					c0,0.773,0.15,1.453,0.451,2.038c0.301,0.585,0.704,1.037,1.21,1.358c0.505,0.32,1.089,0.481,1.75,0.481
					c0.641,0,1.219-0.165,1.734-0.496c0.515-0.33,0.918-0.788,1.21-1.373c0.292-0.585,0.437-1.255,0.437-2.01
					c0-0.774-0.145-1.453-0.437-2.038c-0.292-0.585-0.696-1.038-1.21-1.359c-0.516-0.32-1.093-0.481-1.734-0.481
					c-0.661,0-1.245,0.16-1.75,0.481c-0.506,0.321-0.909,0.774-1.21,1.359C167.839,98.085,167.689,98.764,167.689,99.538z"/>
				<path style="fill:#EC644E;" d="M196.35,107.061h-4.666v-8.427c0-0.99-0.189-1.709-0.568-2.156
					c-0.379-0.447-0.879-0.672-1.501-0.672c-0.429,0-0.866,0.113-1.313,0.337c-0.448,0.225-0.85,0.533-1.21,0.926
					c-0.36,0.393-0.636,0.842-0.83,1.347v8.645h-4.666V91.928h4.199v2.581c0.388-0.593,0.874-1.101,1.458-1.522
					c0.583-0.421,1.253-0.742,2.012-0.963c0.758-0.22,1.584-0.33,2.478-0.33c0.992,0,1.794,0.177,2.406,0.531
					c0.612,0.355,1.078,0.819,1.4,1.393c0.321,0.574,0.534,1.192,0.641,1.852c0.107,0.661,0.161,1.307,0.161,1.939V107.061z"/>
				<path style="fill:#EC644E;" d="M198.624,112.95c-0.759,0-1.491-0.122-2.201-0.365c-0.71-0.243-1.346-0.607-1.909-1.093
					l1.954-3.178c0.194,0.214,0.432,0.369,0.714,0.466c0.282,0.097,0.569,0.146,0.86,0.146c0.292,0,0.554-0.063,0.787-0.188
					c0.233-0.125,0.418-0.313,0.554-0.563c0.136-0.25,0.205-0.529,0.205-0.837V91.928h4.665v15.095c0,1.157-0.248,2.183-0.743,3.08
					c-0.495,0.896-1.166,1.595-2.012,2.096C200.651,112.699,199.693,112.95,198.624,112.95z M199.587,90.178v-4.228h4.665v4.228
					H199.587z"/>
				<path style="fill:#EC644E;" d="M214.72,107.352c-1.303,0-2.465-0.211-3.484-0.632c-1.021-0.422-1.881-0.996-2.581-1.724
					c-0.699-0.727-1.229-1.561-1.589-2.499c-0.36-0.939-0.54-1.925-0.54-2.959c0-1.054,0.18-2.05,0.54-2.988
					c0.36-0.939,0.89-1.771,1.589-2.5c0.7-0.727,1.56-1.302,2.581-1.723c1.02-0.422,2.181-0.633,3.484-0.633
					c1.302,0,2.458,0.211,3.469,0.633c1.011,0.421,1.867,0.996,2.566,1.723c0.701,0.728,1.235,1.561,1.605,2.5
					c0.368,0.938,0.554,1.934,0.554,2.988c0,1.034-0.186,2.02-0.554,2.959c-0.369,0.939-0.904,1.772-1.605,2.499
					c-0.699,0.728-1.554,1.302-2.566,1.724C217.178,107.141,216.022,107.352,214.72,107.352z M211.308,99.538
					c0,0.773,0.15,1.453,0.451,2.038c0.301,0.585,0.704,1.037,1.21,1.358c0.505,0.32,1.089,0.481,1.75,0.481
					c0.641,0,1.219-0.165,1.734-0.496c0.515-0.33,0.918-0.788,1.21-1.373c0.292-0.585,0.437-1.255,0.437-2.01
					c0-0.774-0.145-1.453-0.437-2.038c-0.292-0.585-0.696-1.038-1.21-1.359c-0.516-0.32-1.094-0.481-1.734-0.481
					c-0.661,0-1.245,0.16-1.75,0.481c-0.506,0.321-0.909,0.774-1.21,1.359C211.458,98.085,211.308,98.764,211.308,99.538z"/>
				<path style="fill:#EC644E;" d="M225.07,101.615v-9.687h4.665v8.645c0,0.919,0.185,1.622,0.554,2.111
					c0.369,0.488,0.895,0.733,1.575,0.733c0.428,0,0.836-0.071,1.225-0.212c0.388-0.141,0.768-0.372,1.138-0.692
					c0.369-0.321,0.699-0.735,0.991-1.243v-9.341h4.665v9.963c0,0.46,0.074,0.78,0.219,0.962c0.145,0.182,0.403,0.292,0.773,0.33
					v3.878c-0.429,0.077-0.803,0.136-1.123,0.175c-0.32,0.039-0.608,0.058-0.86,0.058c-0.816,0-1.467-0.169-1.954-0.506
					c-0.486-0.337-0.787-0.812-0.904-1.426l-0.087-0.922c-0.7,0.999-1.57,1.735-2.61,2.206c-1.04,0.47-2.201,0.706-3.484,0.706
					c-1.556,0-2.741-0.49-3.557-1.471C225.478,104.901,225.07,103.479,225.07,101.615z"/>
				<path style="fill:#EC644E;" d="M253.206,95.748c-1.127,0-2.148,0.18-3.061,0.539c-0.914,0.36-1.575,0.889-1.982,1.589v9.185
					h-4.666V91.928h4.286v2.916c0.525-1.03,1.206-1.837,2.042-2.42c0.835-0.583,1.71-0.884,2.624-0.904c0.213,0,0.374,0,0.481,0
					c0.106,0,0.199,0.01,0.276,0.029V95.748z"/>
				<path style="fill:#EC644E;" d="M256.063,98.838V86.213h4.665v12.625H256.063z M256.063,107.061v-4.84h4.665v4.84H256.063z"/>
			</g>
		</g>
		<g>
			<g>
				<path style="fill:#EC644E;" d="M344.679,198.59c0,0-47.983,0.326-54.712,0.326c-6.73,0-28.354,0.8-35.881-5.843
					c-7.411-6.541-4.454-26.179-4.199-33.95c0.266-8.105,5.425-12.241,11.854-13.806c14.205-3.458,59.849-2.336,66.493-2.336
					c9.908,0,39.341-1.622,47.367,7.757c5.088,5.945,4.121,18.763,4.121,23.081c0,21.502-5.258,24.859-23.805,24.859
					c0,0-0.214,3.929-7.785,11.78c-7.571,7.851-4.393,15.142-4.393,15.142s-5.052-4.594-4.302-10.943
					C340.188,208.308,344.679,203.265,344.679,198.59z"/>
			</g>
			<g>
				<path style="fill:#FFFFFF;" d="M269.088,160.277h9.827c0.54,0,1.012,0.113,1.417,0.338c0.405,0.225,0.743,0.518,1.012,0.877
					c0.27,0.36,0.473,0.774,0.608,1.242c0.135,0.468,0.203,0.954,0.203,1.458c0,0.558-0.086,1.107-0.257,1.647
					c-0.171,0.54-0.419,1.053-0.743,1.539c-0.323,0.486-0.715,0.923-1.174,1.31c-0.459,0.387-0.967,0.697-1.525,0.931
					c0.81,0.27,1.431,0.734,1.863,1.39c0.432,0.657,0.647,1.462,0.647,2.416c0,0.972-0.198,1.832-0.594,2.578
					c-0.396,0.747-0.927,1.377-1.593,1.89c-0.666,0.513-1.431,0.9-2.295,1.161c-0.864,0.261-1.755,0.391-2.673,0.391h-8.801
					L269.088,160.277z M274.488,176.287c0.342,0,0.684-0.081,1.026-0.243c0.342-0.162,0.643-0.382,0.904-0.662
					c0.261-0.279,0.472-0.603,0.634-0.972c0.162-0.369,0.243-0.76,0.243-1.174c0-0.558-0.14-1.03-0.419-1.417
					c-0.28-0.387-0.661-0.58-1.147-0.58h-5.292l-1.053,5.048H274.488z M275.648,168.296c0.324,0,0.644-0.072,0.958-0.216
					c0.315-0.144,0.598-0.346,0.851-0.607c0.252-0.261,0.454-0.576,0.607-0.945c0.153-0.369,0.229-0.778,0.229-1.228
					c0-0.558-0.134-1.003-0.405-1.336c-0.27-0.333-0.63-0.499-1.08-0.499h-4.698l-1.025,4.832H275.648z"/>
				<path style="fill:#FFFFFF;" d="M288.58,179.715c-0.955,0-1.787-0.158-2.497-0.472c-0.711-0.315-1.305-0.743-1.782-1.283
					c-0.477-0.54-0.837-1.165-1.08-1.876c-0.243-0.711-0.365-1.462-0.365-2.254c0-1.116,0.22-2.2,0.662-3.253
					c0.441-1.053,1.052-1.989,1.836-2.807c0.783-0.819,1.714-1.476,2.794-1.971c1.08-0.495,2.258-0.742,3.537-0.742
					c0.935,0,1.759,0.158,2.47,0.472c0.711,0.315,1.309,0.738,1.796,1.269c0.486,0.531,0.85,1.156,1.094,1.876
					c0.243,0.72,0.364,1.485,0.364,2.295c0,1.116-0.22,2.196-0.661,3.24c-0.441,1.044-1.053,1.975-1.836,2.794
					c-0.783,0.819-1.715,1.476-2.795,1.971C291.036,179.468,289.858,179.715,288.58,179.715z M289.228,176.638
					c0.557,0,1.102-0.139,1.634-0.418c0.531-0.279,1.003-0.652,1.417-1.12c0.414-0.468,0.747-1.021,0.999-1.66
					c0.252-0.639,0.378-1.318,0.378-2.038c0-0.972-0.234-1.759-0.702-2.362c-0.468-0.603-1.107-0.904-1.917-0.904
					c-0.558,0-1.102,0.139-1.633,0.418c-0.531,0.279-1.004,0.657-1.418,1.134c-0.414,0.477-0.747,1.031-0.999,1.66
					c-0.253,0.63-0.379,1.305-0.379,2.025c0,0.972,0.234,1.759,0.702,2.362C287.779,176.337,288.418,176.638,289.228,176.638z"/>
				<path style="fill:#FFFFFF;" d="M301.16,165.299h3.267l-0.567,2.619c0.684-0.9,1.548-1.602,2.592-2.106
					c1.044-0.504,2.15-0.756,3.321-0.756c0.611,0,1.121,0.086,1.525,0.257c0.405,0.171,0.729,0.401,0.972,0.689
					c0.243,0.288,0.414,0.634,0.513,1.039c0.099,0.405,0.149,0.833,0.149,1.283c0,0.36-0.023,0.734-0.068,1.12
					c-0.046,0.387-0.113,0.779-0.203,1.175l-1.862,8.828h-3.618l1.674-7.937c0.054-0.27,0.098-0.527,0.135-0.77
					c0.036-0.243,0.054-0.463,0.054-0.661c0-0.63-0.14-1.094-0.419-1.39c-0.279-0.297-0.652-0.446-1.12-0.446
					c-0.324,0-0.675,0.072-1.053,0.216c-0.378,0.145-0.747,0.347-1.107,0.607c-0.36,0.261-0.698,0.572-1.012,0.932
					c-0.315,0.36-0.581,0.756-0.797,1.188l-1.755,8.261h-3.618L301.16,165.299z"/>
				<path style="fill:#FFFFFF;" d="M311.743,184.737c-0.648,0-1.246-0.104-1.795-0.311c-0.549-0.207-1.012-0.526-1.391-0.958
					l2.052-2.457c0.144,0.198,0.337,0.346,0.581,0.445c0.243,0.099,0.499,0.148,0.77,0.148c0.432,0,0.837-0.166,1.215-0.499
					c0.378-0.333,0.621-0.761,0.729-1.283l3.104-14.524h3.617l-3.024,14.254c-0.162,0.756-0.432,1.453-0.81,2.092
					c-0.378,0.639-0.833,1.188-1.363,1.647c-0.531,0.459-1.112,0.814-1.742,1.066C313.057,184.611,312.409,184.737,311.743,184.737z
					 M318.196,159.737h3.617l-0.783,3.591h-3.618L318.196,159.737z"/>
				<path style="fill:#FFFFFF;" d="M327.078,179.715c-0.955,0-1.787-0.158-2.497-0.472c-0.711-0.315-1.305-0.743-1.782-1.283
					c-0.477-0.54-0.837-1.165-1.08-1.876c-0.243-0.711-0.365-1.462-0.365-2.254c0-1.116,0.22-2.2,0.662-3.253
					c0.44-1.053,1.052-1.989,1.836-2.807c0.783-0.819,1.714-1.476,2.794-1.971c1.08-0.495,2.259-0.742,3.537-0.742
					c0.935,0,1.759,0.158,2.47,0.472c0.711,0.315,1.309,0.738,1.796,1.269c0.486,0.531,0.85,1.156,1.094,1.876
					c0.243,0.72,0.364,1.485,0.364,2.295c0,1.116-0.22,2.196-0.661,3.24c-0.441,1.044-1.053,1.975-1.836,2.794
					c-0.783,0.819-1.715,1.476-2.795,1.971C329.534,179.468,328.355,179.715,327.078,179.715z M327.725,176.638
					c0.557,0,1.102-0.139,1.634-0.418c0.531-0.279,1.003-0.652,1.417-1.12c0.414-0.468,0.747-1.021,0.999-1.66
					c0.252-0.639,0.378-1.318,0.378-2.038c0-0.972-0.234-1.759-0.702-2.362c-0.468-0.603-1.107-0.904-1.917-0.904
					c-0.558,0-1.102,0.139-1.633,0.418c-0.531,0.279-1.004,0.657-1.418,1.134c-0.414,0.477-0.747,1.031-0.999,1.66
					c-0.253,0.63-0.378,1.305-0.378,2.025c0,0.972,0.234,1.759,0.702,2.362C326.277,176.337,326.916,176.638,327.725,176.638z"/>
				<path style="fill:#FFFFFF;" d="M340.684,179.715c-2.214,0-3.321-1.151-3.321-3.456c0-0.306,0.022-0.634,0.068-0.985
					c0.045-0.351,0.113-0.724,0.203-1.12l1.89-8.855h3.591l-1.701,8.072c-0.054,0.27-0.099,0.513-0.135,0.729
					c-0.036,0.216-0.054,0.423-0.054,0.621c0,1.278,0.54,1.917,1.62,1.917c0.63,0,1.291-0.211,1.984-0.634
					c0.693-0.423,1.327-1.066,1.903-1.93l1.863-8.774h3.617l-2.133,9.989c-0.018,0.09-0.032,0.176-0.041,0.257
					c-0.009,0.081-0.013,0.158-0.013,0.23c0,0.378,0.216,0.576,0.648,0.594l-0.648,3.078c-0.324,0.054-0.607,0.099-0.851,0.135
					c-0.243,0.036-0.464,0.054-0.661,0.054c-0.63,0-1.121-0.126-1.471-0.378c-0.351-0.252-0.526-0.639-0.526-1.161
					c0-0.144,0.009-0.306,0.027-0.486c0.017-0.18,0.072-0.45,0.162-0.81c-0.81,0.972-1.732,1.701-2.767,2.187
					C342.902,179.472,341.818,179.715,340.684,179.715z"/>
				<path style="fill:#FFFFFF;" d="M355.721,165.299h3.321l-0.648,3.024c0.684-0.972,1.449-1.741,2.295-2.308
					c0.846-0.567,1.692-0.851,2.538-0.851c0.18,0,0.314,0.005,0.405,0.013c0.09,0.009,0.171,0.023,0.243,0.041l-0.675,3.213
					c-1.025,0.018-1.993,0.23-2.902,0.634c-0.91,0.405-1.625,1.012-2.146,1.822l-1.809,8.558h-3.618L355.721,165.299z"/>
			</g>
		</g>
	</g>
</g>
<g id="Character">
	<g>
		<g>
			<g>
				
					<rect x="70.752" y="403.035" style="fill:#263238;stroke:#263238;stroke-width:2.5;stroke-linecap:round;stroke-linejoin:round;stroke-miterlimit:10;" width="316.418" height="41.691"/>
				<rect x="245.625" y="407.977" style="fill:#FFFFFF;" width="140.488" height="31.806"/>
				
					<line style="fill:none;stroke:#FFFFFF;stroke-width:2.5;stroke-linecap:round;stroke-linejoin:round;stroke-miterlimit:10;" x1="238.992" y1="403.035" x2="238.992" y2="444.726"/>
				
					<line style="fill:none;stroke:#263238;stroke-width:2.5;stroke-linecap:round;stroke-linejoin:round;stroke-miterlimit:10;" x1="262.51" y1="413.007" x2="387.17" y2="413.007"/>
				
					<line style="fill:none;stroke:#263238;stroke-width:2.5;stroke-linecap:round;stroke-linejoin:round;stroke-miterlimit:10;" x1="257.583" y1="422.801" x2="387.17" y2="422.801"/>
				
					<line style="fill:none;stroke:#263238;stroke-width:2.5;stroke-linecap:round;stroke-linejoin:round;stroke-miterlimit:10;" x1="281.056" y1="434.362" x2="387.17" y2="434.362"/>
				<g>
					<path style="fill:#FFFFFF;" d="M97.348,431.411v-15.105h10.15v3.617h-6.086v2.51h4.96v3.361h-4.96v5.616H97.348z"/>
					<path style="fill:#FFFFFF;" d="M109.081,431.411v-15.105h6.794c0.722,0,1.389,0.153,2.001,0.457
						c0.611,0.305,1.136,0.702,1.574,1.191c0.438,0.49,0.782,1.05,1.032,1.681c0.25,0.632,0.375,1.266,0.375,1.904
						c0,0.88-0.188,1.699-0.563,2.458c-0.375,0.759-0.896,1.38-1.563,1.861l3.126,5.553h-4.585l-2.605-4.638h-1.522v4.638H109.081z
						 M113.145,423.157h2.563c0.25,0,0.483-0.142,0.698-0.426c0.215-0.284,0.323-0.681,0.323-1.192c0-0.524-0.125-0.925-0.375-1.202
						c-0.25-0.276-0.5-0.415-0.75-0.415h-2.459V423.157z"/>
					<path style="fill:#FFFFFF;" d="M133.694,427.795v3.617h-10.546v-15.105h10.358v3.617h-6.294v2.127h5.377v3.361h-5.377v2.383
						H133.694z"/>
					<path style="fill:#FFFFFF;" d="M139.655,423.987v7.425h-4.064v-15.105h3.168l5.94,7.68v-7.68h4.064v15.105h-3.23
						L139.655,423.987z"/>
					<path style="fill:#FFFFFF;" d="M150.492,423.731c0-0.922,0.17-1.829,0.511-2.723c0.34-0.894,0.837-1.695,1.49-2.404
						c0.653-0.709,1.445-1.283,2.376-1.723c0.931-0.439,1.994-0.66,3.189-0.66c1.431,0,2.671,0.302,3.72,0.904
						c1.049,0.603,1.83,1.401,2.345,2.394l-3.105,2.255c-0.139-0.369-0.323-0.674-0.552-0.915c-0.229-0.241-0.483-0.433-0.761-0.574
						c-0.278-0.142-0.566-0.241-0.865-0.298c-0.299-0.056-0.587-0.085-0.865-0.085c-0.583,0-1.087,0.117-1.511,0.351
						c-0.424,0.234-0.771,0.539-1.042,0.915c-0.271,0.376-0.472,0.802-0.604,1.276c-0.132,0.476-0.198,0.947-0.198,1.415
						c0,0.525,0.076,1.028,0.229,1.511c0.153,0.482,0.375,0.908,0.667,1.276c0.292,0.369,0.649,0.663,1.073,0.883
						c0.424,0.22,0.899,0.33,1.427,0.33c0.278,0,0.563-0.032,0.855-0.096c0.292-0.064,0.573-0.17,0.844-0.319
						c0.271-0.149,0.514-0.34,0.729-0.574c0.215-0.234,0.386-0.521,0.511-0.862l3.314,2.021c-0.222,0.553-0.559,1.05-1.011,1.489
						c-0.451,0.44-0.966,0.809-1.542,1.106c-0.576,0.298-1.195,0.525-1.855,0.681c-0.661,0.156-1.302,0.234-1.928,0.234
						c-1.098,0-2.102-0.223-3.011-0.67c-0.91-0.447-1.695-1.039-2.355-1.777c-0.66-0.737-1.171-1.574-1.532-2.51
						C150.673,425.646,150.492,424.696,150.492,423.731z"/>
					<path style="fill:#FFFFFF;" d="M178.795,416.307v15.105h-4.064v-5.914h-4.96v5.914h-4.064v-15.105h4.064v5.574h4.96v-5.574
						H178.795z"/>
				</g>
			</g>
			<g>
				<rect x="47.636" y="356.93" style="fill:#EC644E;" width="299.067" height="46.202"/>
				<rect x="47.636" y="356.93" style="fill:#9ABAE3;" width="56.626" height="46.202"/>
				<rect x="104.134" y="356.93" style="fill:#FFFFFF;" width="56.626" height="46.202"/>
				<rect x="222.653" y="363.784" style="fill:#FFFFFF;" width="124.05" height="32.495"/>
				
					<line style="fill:none;stroke:#263238;stroke-width:2.5;stroke-linecap:round;stroke-linejoin:round;stroke-miterlimit:10;" x1="217.548" y1="403.132" x2="217.548" y2="356.93"/>
				
					<line style="fill:none;stroke:#263238;stroke-width:2.5;stroke-linecap:round;stroke-linejoin:round;stroke-miterlimit:10;" x1="250.8" y1="386.01" x2="346.703" y2="386.01"/>
				
					<line style="fill:none;stroke:#263238;stroke-width:2.5;stroke-linecap:round;stroke-linejoin:round;stroke-miterlimit:10;" x1="276.785" y1="372.48" x2="346.703" y2="372.48"/>
				
					<rect x="47.636" y="356.93" style="fill:none;stroke:#263238;stroke-width:2.5;stroke-linecap:round;stroke-linejoin:round;stroke-miterlimit:10;" width="299.067" height="46.202"/>
			</g>
			<g>
				<rect x="53.659" y="444.726" style="fill:#9ABAE3;" width="329.842" height="25.581"/>
				
					<rect x="53.659" y="444.726" style="fill:none;stroke:#263238;stroke-width:2.5;stroke-linecap:round;stroke-linejoin:round;stroke-miterlimit:10;" width="329.842" height="25.581"/>
				<rect x="228.283" y="448.52" style="fill:#FFFFFF;" width="152.463" height="17.992"/>
				
					<line style="fill:none;stroke:#263238;stroke-width:2.5;stroke-linecap:round;stroke-linejoin:round;stroke-miterlimit:10;" x1="221.164" y1="470.307" x2="221.164" y2="444.726"/>
				
					<line style="fill:none;stroke:#263238;stroke-width:2.5;stroke-linecap:round;stroke-linejoin:round;stroke-miterlimit:10;" x1="244.917" y1="459.004" x2="383.501" y2="459.004"/>
				
					<line style="fill:none;stroke:#263238;stroke-width:2.5;stroke-linecap:round;stroke-linejoin:round;stroke-miterlimit:10;" x1="274.91" y1="453.335" x2="383.501" y2="453.335"/>
			</g>
		</g>
		<g>
			<g>
				<g>
					<g>
						<g>
							
								<polygon style="fill:#F0BA92;stroke:#263238;stroke-width:2.5;stroke-linecap:round;stroke-linejoin:round;stroke-miterlimit:10;" points="
								249.295,413.812 230.041,433.419 188.668,400.339 206.386,380.115 							"/>
						</g>
						<g>
							
								<polygon style="fill:#EC644E;stroke:#263238;stroke-width:2.5;stroke-linecap:round;stroke-linejoin:round;stroke-miterlimit:10;" points="
								188.671,400.343 175.307,417.058 235.688,465.336 230.04,433.419 233.991,430.228 192.248,396.853 							"/>
							
								<path style="fill:none;stroke:#263238;stroke-width:2.5;stroke-linecap:round;stroke-linejoin:round;stroke-miterlimit:10;" d="
								M220.569,434.364c0,0,7.069-0.951,12.625,4.657"/>
							
								<path style="fill:none;stroke:#263238;stroke-width:2.5;stroke-linecap:round;stroke-linejoin:round;stroke-miterlimit:10;" d="
								M221.318,429.652c0,0,7.117-0.467,12.278,5.507"/>
							
								<path style="fill:#FFFFFF;stroke:#263238;stroke-width:2.5;stroke-linecap:round;stroke-linejoin:round;stroke-miterlimit:10;" d="
								M173.887,418.834l14.784-18.49c3.767,4.395,6.953,22.973,10.205,26.822c3.252,3.849,9.848,5.126,12.689,7.942
								c2.841,2.816,4.172,6.605,6.166,8.2c1.995,1.595,10.222,0.134,14.817,4.285c4.595,4.151,5.599,22.62,1.72,19.519
								C230.39,464.01,173.887,418.834,173.887,418.834z"/>
						</g>
					</g>
					<g>
						<path style="fill:#263238;" d="M252.584,278.957l3.598,7.632c15.709,0.236,37.072-0.107,44.87,3.017
							c11.908,4.77,31.091,21.137,25.636,45.896c-6.46,29.316-62.325,74.29-64.172,77.173c-6.015,9.387-12.237,11.89-12.237,11.89
							c-9.204-11.89-22.682-13.993-31.355-17.558c-8.673-3.565-17.164-19.779-21.361-20.338c-4.197-0.56-5.316,1.958-5.316,1.958
							s9.997-13.531,25.078-29.708c10.948-11.743,25.29-14.801,25.29-14.801s-55.076,15.48-69.953-7.274
							c-12.439-19.025-0.551-57.826-0.551-57.826L252.584,278.957z"/>
						<path style="fill:#FFFFFF;" d="M326.686,335.503c-6.461,29.316-62.318,74.293-64.174,77.171
							c-6.007,9.389-12.229,11.888-12.229,11.888c-1.073-1.388-2.208-2.638-3.382-3.773c2.032-1.817,4.417-4.442,6.777-8.114
							c1.843-2.878,57.712-47.855,64.174-77.171c5.452-24.76-13.727-41.128-25.64-45.898c-7.799-3.117-29.162-2.776-44.874-3.016
							l-3.58-7.626h8.822l3.605,7.626c15.712,0.24,37.062-0.101,44.861,3.016C312.959,294.375,332.137,310.743,326.686,335.503z"/>
						
							<path style="fill:none;stroke:#263238;stroke-width:2.5;stroke-linecap:round;stroke-linejoin:round;stroke-miterlimit:10;" d="
							M252.584,278.957l3.598,7.632c15.709,0.236,37.072-0.107,44.87,3.017c11.908,4.77,31.091,21.137,25.636,45.896
							c-6.46,29.316-62.325,74.29-64.172,77.173c-6.015,9.387-12.237,11.89-12.237,11.89c-9.204-11.89-22.682-13.993-31.355-17.558
							c-8.673-3.565-17.164-19.779-21.361-20.338c-4.197-0.56-5.316,1.958-5.316,1.958s9.997-13.531,25.078-29.708
							c10.948-11.743,25.29-14.801,25.29-14.801s-55.076,15.48-69.953-7.274c-12.439-19.025-0.551-57.826-0.551-57.826
							L252.584,278.957z"/>
						<path style="fill:#263238;" d="M196.066,393.447c0,0-4.581-2.642-4.983-4.315c-0.402-1.673,3.604-2.412,9.994-0.337
							L196.066,393.447z"/>
						<path style="fill:#263238;" d="M243.849,419.66l-2.775,3.127c0,0,8.053,4.793,9.646,3.283
							C252.314,424.56,249.032,420.749,243.849,419.66z"/>
					</g>
				</g>
				<g>
					<g>
						<g>
							
								<polygon style="fill:#F0BA92;stroke:#263238;stroke-width:2.5;stroke-linecap:round;stroke-linejoin:round;stroke-miterlimit:10;" points="
								257.267,420.463 251.306,446.141 198.335,446.141 201.544,420.463 							"/>
						</g>
						<g>
							
								<polygon style="fill:#EC644E;stroke:#263238;stroke-width:2.5;stroke-linecap:round;stroke-linejoin:round;stroke-miterlimit:10;" points="
								198.34,446.142 198.34,467.542 275.649,467.542 251.306,446.142 252.399,441.182 198.954,441.182 							"/>
							
								<path style="fill:none;stroke:#263238;stroke-width:2.5;stroke-linecap:round;stroke-linejoin:round;stroke-miterlimit:10;" d="
								M244.498,452.794c0,0,4.927-5.157,12.769-4.246"/>
							
								<path style="fill:none;stroke:#263238;stroke-width:2.5;stroke-linecap:round;stroke-linejoin:round;stroke-miterlimit:10;" d="
								M242.142,448.646c0,0,5.267-4.809,13.029-3.366"/>
							
								<path style="fill:#FFFFFF;stroke:#263238;stroke-width:2.5;stroke-linecap:round;stroke-linejoin:round;stroke-miterlimit:10;" d="
								M198.34,469.816v-23.674c5.687,1.08,19.777,13.601,24.721,14.576c4.944,0.975,10.892-2.146,14.87-1.72
								c3.978,0.426,7.383,2.554,9.936,2.554c2.554,0,8.068-6.279,14.249-5.906c6.181,0.373,18.498,14.17,13.532,14.17
								C270.683,469.816,198.34,469.816,198.34,469.816z"/>
						</g>
					</g>
					<path style="fill:#263238;" d="M231.701,278.957h-84.186c-11.325,39.504,0.416,62.617,16.582,70.958
						c17.444,9.001,44.853,3.534,47.976,6.391c0,0,1.422-1.973,0.206,0.326c-8.548,16.169-6.744,36.443-20.74,68.295
						c-2.82,6.418,3.546,8.172,3.546,8.172c0-5.743,10.14-7.071,39.352,1.004c18.885,5.22,23.721-3.444,30.441,0.542
						c-0.048,0.115,31.305-68.112,31.304-113.456c0-15.249-10.697-26.231-14.688-29.795c-11.75-10.492-47.382-8.424-47.382-8.424
						L231.701,278.957z"/>
					<g>
						<path style="fill:#FFFFFF;" d="M287.561,321.189c0,43.791-28.391,106.904-31.152,113.115c3.25-0.793,5.695-1.295,8.47,0.344
							c-0.053,0.119,31.298-68.108,31.298-113.458c0-15.249-10.69-26.23-14.681-29.797c-9.725-8.682-35.823-8.761-44.518-8.536
							c11.483,0.291,28.463,1.903,35.889,8.536C276.858,294.959,287.561,305.94,287.561,321.189z"/>
						<path style="fill:#FFFFFF;" d="M231.706,278.957h-7.096l0.872,4.017c0,0,3.449-0.198,8.536-0.159L231.706,278.957z"/>
						<path style="fill:#FFFFFF;" d="M256.409,434.303c-0.172,0.053-0.344,0.092-0.529,0.132c0.119,0.066,0.251,0.132,0.37,0.211
							C256.25,434.647,256.303,434.528,256.409,434.303z"/>
						<path style="fill:#FFFFFF;" d="M236.978,282.855c-1.031-0.026-2.022-0.04-2.96-0.04l0.092,0.159
							C234.111,282.974,235.168,282.908,236.978,282.855z"/>
					</g>
					
						<path style="fill:none;stroke:#263238;stroke-width:2.5;stroke-linecap:round;stroke-linejoin:round;stroke-miterlimit:10;" d="
						M231.701,278.957h-84.186c-11.325,39.504,0.416,62.617,16.582,70.958c17.444,9.001,44.853,3.534,47.976,6.391
						c0,0,6-13.783,0.206,0.326c-10.377,25.27-6.744,36.443-20.74,68.295c-2.82,6.418,3.546,8.172,3.546,8.172
						c0-5.743,10.14-7.071,39.352,1.004c18.885,5.22,23.721-3.444,30.441,0.542c-0.048,0.115,31.305-68.112,31.304-113.456
						c0-15.249-10.697-26.231-14.688-29.795c-11.75-10.492-47.382-8.424-47.382-8.424L231.701,278.957z"/>
					<path style="fill:#263238;" d="M200.076,435.528c0,0-4.816-0.338-5.865-1.702c-1.049-1.364,0.662-3.555,7.062-4.787
						L200.076,435.528z"/>
					<path style="fill:#263238;" d="M254.419,435.065l-1.259,3.987c0,0,11.438-1.496,12.277-3.524
						C266.277,433.5,259.595,433.946,254.419,435.065z"/>
					
						<path style="fill:none;stroke:#FFFFFF;stroke-width:2.5;stroke-linecap:round;stroke-linejoin:round;stroke-miterlimit:10;" d="
						M221.377,346.541c0,0-9.304,3.442-16.183,32.162c-4.402,18.377-5.14,21.933-5.14,21.933"/>
					
						<path style="fill:none;stroke:#FFFFFF;stroke-width:2.5;stroke-linecap:round;stroke-linejoin:round;stroke-miterlimit:10;" d="
						M216.605,343.927c0,0-4.301,5.284-4.532,12.11"/>
				</g>
			</g>
			<g>
				<g>
					<g>
						
							<path style="fill:#F0BA92;stroke:#263238;stroke-width:2.5;stroke-linecap:round;stroke-linejoin:round;stroke-miterlimit:10;" d="
							M218.047,223.484c0,0,29.812,42.132,40.803,47.52c15.113,7.408,58.872,14.988,59.368,15.163
							c6.573,2.324,19.073,10.042,21.907,5.26c1.98-3.341-6.952-10.531-6.952-10.531s15.297,7.985,17.492,3.423
							c1.781-3.703-12.751-13.175-12.751-13.175s14.821,6.879,16.424,2.931c1.896-4.67-9.262-9.706-20.421-18.904
							c-2.559-2.109-35.762-12.057-51.303-17.733c-3.706-1.353-33.836-36.887-33.836-36.887L218.047,223.484z"/>
						
							<path style="fill:#F0BA92;stroke:#263238;stroke-width:2.5;stroke-linecap:round;stroke-linejoin:round;stroke-miterlimit:10;" d="
							M326.098,251.682c0,0,7.863,0.278,10.569,0.066c2.515-0.197,6.293-0.921,7.837-1.106c3.599-0.431,5.415,3.806-0.553,7.562
							c-3.108,1.956-3.198,1.368-7.649,3.673c0,0-2.096,6.901-9.007,9.033"/>
					</g>
					<g>
						<path style="fill:#EC644E;" d="M199.746,185.68c0,0,8.41-1.102,14.854-2.099c20.995-3.248,34.387,14.148,47.104,23.521
							c4.053,2.987,2.053,5.503,2.053,5.503s0.367-3.545-9.44-0.014c-5.342,1.923-22.237,19.417-31.131,21.283
							c0,0-4.556-5.027-4.993-5.664"/>
						<path style="fill:#FFFFFF;" d="M263.755,212.605c0,0,0.253-2.483-5.431-1.217c-0.359-0.427-0.842-0.862-1.45-1.321
							c-12.949-9.544-26.583-27.266-47.966-23.955c-2.664,0.427-5.658,0.839-8.269,1.209l-0.898-1.644c0,0,8.41-1.104,14.86-2.096
							c21.001-3.255,34.389,14.146,47.098,23.52C265.752,210.086,263.755,212.605,263.755,212.605z"/>
						
							<path style="fill:none;stroke:#263238;stroke-width:2.5;stroke-linecap:round;stroke-linejoin:round;stroke-miterlimit:10;" d="
							M199.746,185.68c0,0,8.41-1.102,14.854-2.099c20.995-3.248,34.387,14.148,47.104,23.521c4.053,2.987,2.053,5.503,2.053,5.503
							s0.367-3.545-9.44-0.014c-5.342,1.923-22.237,19.417-31.131,21.283c0,0-4.556-5.027-4.993-5.664"/>
						<path style="fill:#263238;" d="M264.495,212.688c0.121,1.465-2.673,2.814-2.673,2.814l-3.918-4.015
							C257.904,211.486,264.339,210.803,264.495,212.688z"/>
					</g>
				</g>
				<g>
					<g>
						<g>
							<g>
								<g>
									<path style="fill:#EC644E;" d="M170.527,188.001c-22.104,12.012-20.339,35.044-23.866,62.579
										c-2.118,16.536-14.224,35.676-9.188,46.486c0,0-4.011-6.848,69.682,0.706c38.251,3.921,47.633-18.6,50.579-16.246
										c0,0,1.625,2.19-1.32-10.705c-2.104-9.21-13.282-84.642-48.424-84.16C193.658,186.858,184.002,180.678,170.527,188.001z"/>
								</g>
							</g>
						</g>
					</g>
					<g>
						<g>
							<g>
								<g>
									
										<path style="fill:none;stroke:#263238;stroke-width:2.5;stroke-linecap:round;stroke-linejoin:round;stroke-miterlimit:10;" d="
										M208.876,184.834c-14.198,1.962-24.874-4.156-38.349,3.167c-22.104,12.012-20.339,35.044-23.866,62.579
										c-2.118,16.536-14.224,35.676-9.188,46.486c0,0-4.011-6.848,69.682,0.706c38.251,3.921,46.107-14.764,50.579-16.246
										c0,0,1.625,2.19-1.32-10.705c-1.481-6.482-4.16-24.893-18.23-60.863"/>
								</g>
							</g>
							<path style="fill:#263238;" d="M136.309,296.974c-0.887,3.331,7.383,4.232,7.383,4.232l1.565-5.58
								C145.257,295.626,136.823,295.043,136.309,296.974z"/>
						</g>
					</g>
					
						<path style="fill:none;stroke:#263238;stroke-width:2.5;stroke-linecap:round;stroke-linejoin:round;stroke-miterlimit:10;" d="
						M218.229,287.765c0,0,12.58-0.1,23.928-10.88"/>
					
						<path style="fill:none;stroke:#263238;stroke-width:2.5;stroke-linecap:round;stroke-linejoin:round;stroke-miterlimit:10;" d="
						M213.849,280.749c0,0,7.56,1.636,14.444-2.091"/>
				</g>
				<g>
					<path style="fill:#263238;" d="M205.269,187.615c0,0,4.655,6.436,0.924,7.355c-5.852,1.44-14.289-7.63-14.289-7.63
						L205.269,187.615z"/>
					<g>
						<g>
							<path style="fill:#F0BA92;" d="M184.523,175.204c-2.544-9.833,2.107-19.542,10.39-21.686
								c8.283-2.143,17.06,4.091,19.605,13.924c2.544,9.833-2.107,19.542-10.39,21.685
								C195.845,191.271,187.068,185.037,184.523,175.204z"/>
							<path style="fill:#FFFFFF;" d="M204.126,189.128c-2.312,0.596-4.668,0.542-6.91-0.07c1.128,0.024,2.26-0.105,3.389-0.393
								c7.85-2.036,12.259-11.238,9.85-20.563c-2.415-9.325-10.737-15.232-18.586-13.202c-0.197,0.053-0.4,0.106-0.592,0.172
								c1.111-0.689,2.33-1.219,3.638-1.555c8.28-2.14,17.059,4.092,19.604,13.925C217.063,177.276,212.412,186.982,204.126,189.128
								z"/>
							
								<path style="fill:none;stroke:#263238;stroke-width:2.5;stroke-linecap:round;stroke-linejoin:round;stroke-miterlimit:10;" d="
								M184.523,175.204c-2.544-9.833,2.107-19.542,10.39-21.686c8.283-2.143,17.06,4.091,19.605,13.924
								c2.544,9.833-2.107,19.542-10.39,21.685C195.845,191.271,187.068,185.037,184.523,175.204z"/>
						</g>
						<path style="fill:#263238;" d="M190.333,155.316c0,0,11.451,17.785-3.033,26.57
							C187.301,181.886,175.467,164.566,190.333,155.316z"/>
						<g>
							<g>
								
									<path style="fill:#EC644E;stroke:#263238;stroke-width:2.5;stroke-linecap:round;stroke-linejoin:round;stroke-miterlimit:10;" d="
									M185.018,176.848c0,0,8.646-10.269,23.038-19.932c0,0-8.79-8.352-18.76-1.038
									C181.734,161.425,182.606,172.107,185.018,176.848z"/>
							</g>
						</g>
						
							<path style="fill:#EC644E;stroke:#263238;stroke-width:2.5;stroke-linecap:round;stroke-linejoin:round;stroke-miterlimit:10;" d="
							M193.153,168.401c0,0-0.7-8.678,2.004-12.648c2.511-3.685,14.233-10.312,17.186-9.397c3.907,1.211-1.607,12.795-1.607,12.795
							l-2.046-2.202C202.292,160.087,193.153,168.401,193.153,168.401z"/>
					</g>
				</g>
				<g>
					<g>
						<path style="fill:#9ABAE3;" d="M185.712,290.21c0.001,1.277,0.964,2.34,2.256,2.612c0.206,0.046,0.428,0.068,0.65,0.068
							l140.304-0.144l0.025-0.069l18.419-58.511c0.361-1.148-0.578-2.303-1.877-2.301l-87.755,0.09
							c-0.872,0.001-1.628,0.526-1.874,1.294l-8.885,28.225l-4.098,13.003l-3.303,10.508l-0.787,2.486l-50.173,0.052
							c-0.806,0.001-1.529,0.298-2.055,0.785C186.031,288.795,185.711,289.465,185.712,290.21z"/>
						<g>
							<path style="fill:#FFFFFF;" d="M340.855,236.094c0.361-1.148-0.578-2.303-1.877-2.301l-83.318,0.089l0.199-0.633
								c0.246-0.768,1.002-1.293,1.874-1.294l87.755-0.09c1.299-0.001,2.238,1.153,1.877,2.301l-18.419,58.511l-0.025,0.069
								l-5.9,0.003L340.855,236.094z"/>
						</g>
						
							<path style="fill:none;stroke:#263238;stroke-width:2.5;stroke-linecap:round;stroke-linejoin:round;stroke-miterlimit:10;" d="
							M185.712,290.21c0.001,1.277,0.964,2.34,2.256,2.612c0.206,0.046,0.428,0.068,0.65,0.068l140.304-0.144l0.025-0.069
							l18.419-58.511c0.361-1.148-0.578-2.303-1.877-2.301l-87.755,0.09c-0.872,0.001-1.628,0.526-1.874,1.294l-8.885,28.225
							l-4.098,13.003l-3.303,10.508l-0.787,2.486l-50.173,0.052c-0.806,0.001-1.529,0.298-2.055,0.785
							C186.031,288.795,185.711,289.465,185.712,290.21z"/>
						
							<polyline style="fill:none;stroke:#263238;stroke-width:2.5;stroke-linecap:round;stroke-linejoin:round;stroke-miterlimit:10;" points="
							346.54,236.784 260.626,236.964 243.132,291.763 						"/>
					</g>
					
						<polygon style="fill:#263238;stroke:#263238;stroke-width:2.5;stroke-linecap:round;stroke-linejoin:round;stroke-miterlimit:10;" points="
						286.226,270.117 302.737,270.1 304.491,262.339 287.98,262.356 					"/>
				</g>
				<g>
					<g>
						
							<path style="fill:#F0BA92;stroke:#263238;stroke-width:2.5;stroke-linecap:round;stroke-linejoin:round;stroke-miterlimit:10;" d="
							M157.192,199.603c-7.195,2.955-12.918,17.664-17.009,36.369c-4.092,18.706-7.707,39.099-1.517,50.271
							c6.19,11.172,26.508,8.685,31.816-5.212c5.308-13.897,8.327-59.862,7.459-69.906
							C177.074,201.081,164.863,196.453,157.192,199.603z"/>
					</g>
					<g>
						
							<path style="fill:#EC644E;stroke:#263238;stroke-width:2.5;stroke-linecap:round;stroke-linejoin:round;stroke-miterlimit:10;" d="
							M187.193,184.288c0,0-15.353-0.351-21.626,1.429c-20.438,5.799-20.759,26.434-28.412,40.254
							c-2.439,4.404,0.428,5.857,0.428,5.857s-2.055-3.96,8.575-3.948c5.678,0.006,25.067,7.957,33.93,5.946l1.978-12.71"/>
						<path style="fill:#263238;" d="M136.947,232.212c0.5,1.382,3.603,1.443,3.603,1.443l1.887-5.283
							C142.437,228.372,136.303,230.434,136.947,232.212z"/>
					</g>
					<g>
						
							<path style="fill:#F0BA92;stroke:#263238;stroke-width:2.5;stroke-linecap:round;stroke-linejoin:round;stroke-miterlimit:10;" d="
							M139.36,287.27c3.989,6.208,9.807,8.147,16.623,9.03c11.23,1.454,38.033-2.711,38.033-2.711s3.419,1.398,6.723,1.753
							c7.904,0.849,16.45-3.291,20.35-6.098c9.852,0.366,13.567,4.388,16.738,2.787c4.023-2.027-0.564-6.978-0.564-6.978
							c5.769,4.248,8.441,0.631,8.685-0.216c1.102-3.743-1.198-5.381-1.198-5.381c5.934,0.362-2.307-15.781-27.397-18.692
							c-9.314-1.08-18.152,0.098-20.514,0.102c0,0-12.468-4.722-30.372-3.097"/>
						
							<path style="fill:none;stroke:#263238;stroke-width:2.5;stroke-linecap:round;stroke-linejoin:round;stroke-miterlimit:10;" d="
							M237.265,285.052c-3.359-2.676-10.571-5.69-10.571-5.69"/>
						
							<path style="fill:none;stroke:#263238;stroke-width:2.5;stroke-linecap:round;stroke-linejoin:round;stroke-miterlimit:10;" d="
							M244.751,279.454c-3.156-3.113-12.696-7.668-12.696-7.668"/>
					</g>
				</g>
			</g>
		</g>
	</g>
</g>
</svg>
