<?xml version="1.0" encoding="UTF-8" standalone="no"?>
<!-- Created with Inkscape (http://www.inkscape.org/) -->

<svg
   width="1920"
   height="1080"
   viewBox="0 0 508 285.75"
   version="1.1"
   id="svg1"
   xml:space="preserve"
   xmlns="http://www.w3.org/2000/svg"
   xmlns:svg="http://www.w3.org/2000/svg"><defs
     id="defs1" /><g
     id="layer1"><g
       style="fill:#e8eaed"
       id="g1"
       transform="matrix(0.04975317,0,0,0.03010114,4.2985139,72.71824)"><path
         d="m 280,-880 h 400 v 314 q 0,23 -10,41 -10,18 -28,29 l -142,84 28,92 h 152 l -124,88 48,152 -124,-94 -124,94 48,-152 -124,-88 h 152 l 28,-92 -142,-84 q -18,-11 -28,-29 -10,-18 -10,-41 z m 80,80 v 234 l 80,48 v -282 z m 240,0 h -80 v 282 l 80,-48 z m -120,153 z m -40,-12 z m 80,0 z"
         id="path1" /></g><g
       style="fill:#e8eaed"
       id="g2"
       transform="matrix(0.04687727,0,0,0.03105977,7.787949,237.29674)"><path
         d="m 280,-880 h 400 v 314 q 0,23 -10,41 -10,18 -28,29 l -142,84 28,92 h 152 l -124,88 48,152 -124,-94 -124,94 48,-152 -124,-88 h 152 l 28,-92 -142,-84 q -18,-11 -28,-29 -10,-18 -10,-41 z m 80,80 v 234 l 80,48 v -282 z m 240,0 h -80 v 282 l 80,-48 z m -120,153 z m -40,-12 z m 80,0 z"
         id="path2" /></g><g
       style="fill:#e8eaed"
       id="g3"
       transform="matrix(0.04879454,0,0,0.03010114,245.75956,190.43865)"><path
         d="m 280,-880 h 400 v 314 q 0,23 -10,41 -10,18 -28,29 l -142,84 28,92 h 152 l -124,88 48,152 -124,-94 -124,94 48,-152 -124,-88 h 152 l 28,-92 -142,-84 q -18,-11 -28,-29 -10,-18 -10,-41 z m 80,80 v 234 l 80,48 v -282 z m 240,0 h -80 v 282 l 80,-48 z m -120,153 z m -40,-12 z m 80,0 z"
         id="path3" /></g><g
       style="fill:#e8eaed"
       id="g4"
       transform="matrix(0.05167044,0,0,0.03249773,279.46518,37.63219)"><path
         d="m 280,-880 h 400 v 314 q 0,23 -10,41 -10,18 -28,29 l -142,84 28,92 h 152 l -124,88 48,152 -124,-94 -124,94 48,-152 -124,-88 h 152 l 28,-92 -142,-84 q -18,-11 -28,-29 -10,-18 -10,-41 z m 80,80 v 234 l 80,48 v -282 z m 240,0 h -80 v 282 l 80,-48 z m -120,153 z m -40,-12 z m 80,0 z"
         id="path4" /></g><g
       style="fill:#e8eaed"
       id="g5"
       transform="matrix(0.05071181,0,0,0.0291425,422.37853,272.42114)"><path
         d="m 280,-880 h 400 v 314 q 0,23 -10,41 -10,18 -28,29 l -142,84 28,92 h 152 l -124,88 48,152 -124,-94 -124,94 48,-152 -124,-88 h 152 l 28,-92 -142,-84 q -18,-11 -28,-29 -10,-18 -10,-41 z m 80,80 v 234 l 80,48 v -282 z m 240,0 h -80 v 282 l 80,-48 z m -120,153 z m -40,-12 z m 80,0 z"
         id="path5" /></g><g
       style="fill:#e8eaed"
       id="g6"
       transform="matrix(0.04879454,0,0,0.02770455,451.29096,28.812746)"><path
         d="m 280,-880 h 400 v 314 q 0,23 -10,41 -10,18 -28,29 l -142,84 28,92 h 152 l -124,88 48,152 -124,-94 -124,94 48,-152 -124,-88 h 152 l 28,-92 -142,-84 q -18,-11 -28,-29 -10,-18 -10,-41 z m 80,80 v 234 l 80,48 v -282 z m 240,0 h -80 v 282 l 80,-48 z m -120,153 z m -40,-12 z m 80,0 z"
         id="path6" /></g><g
       style="fill:#e8eaed"
       id="g7"
       transform="matrix(0.02753025,0,0,0.02698558,84.297853,107.45917)"><path
         d="m 560,-564 v -68 q 33,-14 67.5,-21 34.5,-7 72.5,-7 26,0 51,4 25,4 49,10 v 64 q -24,-9 -48.5,-13.5 -24.5,-4.5 -51.5,-4.5 -38,0 -73,9.5 -35,9.5 -67,26.5 z m 0,220 v -68 q 33,-14 67.5,-21 34.5,-7 72.5,-7 26,0 51,4 25,4 49,10 v 64 q -24,-9 -48.5,-13.5 -24.5,-4.5 -51.5,-4.5 -38,0 -73,9 -35,9 -67,27 z m 0,-110 v -68 q 33,-14 67.5,-21 34.5,-7 72.5,-7 26,0 51,4 25,4 49,10 v 64 q -24,-9 -48.5,-13.5 -24.5,-4.5 -51.5,-4.5 -38,0 -73,9.5 -35,9.5 -67,26.5 z m -300,134 q 47,0 91.5,10.5 44.5,10.5 88.5,31.5 v -394 q -41,-24 -87,-36 -46,-12 -93,-12 -36,0 -71.5,7 -35.5,7 -68.5,21 v 396 q 35,-12 69.5,-18 34.5,-6 70.5,-6 z m 260,42 q 44,-21 88.5,-31.5 44.5,-10.5 91.5,-10.5 36,0 70.5,6 34.5,6 69.5,18 v -396 q -33,-14 -68.5,-21 -35.5,-7 -71.5,-7 -47,0 -93,12 -46,12 -87,36 z m -40,118 q -48,-38 -104,-59 -56,-21 -116,-21 -42,0 -82.5,11 -40.5,11 -77.5,31 -21,11 -40.5,-1 Q 40,-211 40,-234 v -482 q 0,-11 5.5,-21 5.5,-10 16.5,-15 46,-24 96,-36 50,-12 102,-12 58,0 113.5,15 55.5,15 106.5,45 51,-30 106.5,-45 55.5,-15 113.5,-15 52,0 102,12 50,12 96,36 11,5 16.5,15 5.5,10 5.5,21 v 482 q 0,23 -19.5,35 -19.5,12 -40.5,1 -37,-20 -77.5,-31 -40.5,-11 -82.5,-11 -60,0 -116,21 -56,21 -104,59 z M 280,-494 Z"
         id="path1-4" /></g><g
       style="fill:#e8eaed"
       id="g8"
       transform="matrix(0.03014471,0,0,0.02698558,349.92697,135.45132)"><path
         d="m 560,-564 v -68 q 33,-14 67.5,-21 34.5,-7 72.5,-7 26,0 51,4 25,4 49,10 v 64 q -24,-9 -48.5,-13.5 -24.5,-4.5 -51.5,-4.5 -38,0 -73,9.5 -35,9.5 -67,26.5 z m 0,220 v -68 q 33,-14 67.5,-21 34.5,-7 72.5,-7 26,0 51,4 25,4 49,10 v 64 q -24,-9 -48.5,-13.5 -24.5,-4.5 -51.5,-4.5 -38,0 -73,9 -35,9 -67,27 z m 0,-110 v -68 q 33,-14 67.5,-21 34.5,-7 72.5,-7 26,0 51,4 25,4 49,10 v 64 q -24,-9 -48.5,-13.5 -24.5,-4.5 -51.5,-4.5 -38,0 -73,9.5 -35,9.5 -67,26.5 z m -300,134 q 47,0 91.5,10.5 44.5,10.5 88.5,31.5 v -394 q -41,-24 -87,-36 -46,-12 -93,-12 -36,0 -71.5,7 -35.5,7 -68.5,21 v 396 q 35,-12 69.5,-18 34.5,-6 70.5,-6 z m 260,42 q 44,-21 88.5,-31.5 44.5,-10.5 91.5,-10.5 36,0 70.5,6 34.5,6 69.5,18 v -396 q -33,-14 -68.5,-21 -35.5,-7 -71.5,-7 -47,0 -93,12 -46,12 -87,36 z m -40,118 q -48,-38 -104,-59 -56,-21 -116,-21 -42,0 -82.5,11 -40.5,11 -77.5,31 -21,11 -40.5,-1 Q 40,-211 40,-234 v -482 q 0,-11 5.5,-21 5.5,-10 16.5,-15 46,-24 96,-36 50,-12 102,-12 58,0 113.5,15 55.5,15 106.5,45 51,-30 106.5,-45 55.5,-15 113.5,-15 52,0 102,12 50,12 96,36 11,5 16.5,15 5.5,10 5.5,21 v 482 q 0,23 -19.5,35 -19.5,12 -40.5,1 -37,-20 -77.5,-31 -40.5,-11 -82.5,-11 -60,0 -116,21 -56,21 -104,59 z M 280,-494 Z"
         id="path7" /></g><g
       style="fill:#e8eaed"
       id="g9"
       transform="matrix(0.02927323,0,0,0.02758472,468.44915,110.23922)"><path
         d="m 560,-564 v -68 q 33,-14 67.5,-21 34.5,-7 72.5,-7 26,0 51,4 25,4 49,10 v 64 q -24,-9 -48.5,-13.5 -24.5,-4.5 -51.5,-4.5 -38,0 -73,9.5 -35,9.5 -67,26.5 z m 0,220 v -68 q 33,-14 67.5,-21 34.5,-7 72.5,-7 26,0 51,4 25,4 49,10 v 64 q -24,-9 -48.5,-13.5 -24.5,-4.5 -51.5,-4.5 -38,0 -73,9 -35,9 -67,27 z m 0,-110 v -68 q 33,-14 67.5,-21 34.5,-7 72.5,-7 26,0 51,4 25,4 49,10 v 64 q -24,-9 -48.5,-13.5 -24.5,-4.5 -51.5,-4.5 -38,0 -73,9.5 -35,9.5 -67,26.5 z m -300,134 q 47,0 91.5,10.5 44.5,10.5 88.5,31.5 v -394 q -41,-24 -87,-36 -46,-12 -93,-12 -36,0 -71.5,7 -35.5,7 -68.5,21 v 396 q 35,-12 69.5,-18 34.5,-6 70.5,-6 z m 260,42 q 44,-21 88.5,-31.5 44.5,-10.5 91.5,-10.5 36,0 70.5,6 34.5,6 69.5,18 v -396 q -33,-14 -68.5,-21 -35.5,-7 -71.5,-7 -47,0 -93,12 -46,12 -87,36 z m -40,118 q -48,-38 -104,-59 -56,-21 -116,-21 -42,0 -82.5,11 -40.5,11 -77.5,31 -21,11 -40.5,-1 Q 40,-211 40,-234 v -482 q 0,-11 5.5,-21 5.5,-10 16.5,-15 46,-24 96,-36 50,-12 102,-12 58,0 113.5,15 55.5,15 106.5,45 51,-30 106.5,-45 55.5,-15 113.5,-15 52,0 102,12 50,12 96,36 11,5 16.5,15 5.5,10 5.5,21 v 482 q 0,23 -19.5,35 -19.5,12 -40.5,1 -37,-20 -77.5,-31 -40.5,-11 -82.5,-11 -60,0 -116,21 -56,21 -104,59 z M 280,-494 Z"
         id="path8" /></g><g
       style="fill:#e8eaed"
       id="g11"
       transform="matrix(0.03430849,0,0,0.03484106,346.96589,231.44268)"><path
         d="m 280,-120 v -80 H 440 V -324 Q 391,-335 352.5,-365.5 314,-396 296,-442 221,-451 170.5,-507.5 120,-564 120,-640 v -40 q 0,-33 23.5,-56.5 Q 167,-760 200,-760 h 80 v -80 h 400 v 80 h 80 q 33,0 56.5,23.5 23.5,23.5 23.5,56.5 v 40 q 0,76 -50.5,132.5 Q 739,-451 664,-442 646,-396 607.5,-365.5 569,-335 520,-324 v 124 h 160 v 80 z m 0,-408 v -152 h -80 v 40 q 0,38 22,68.5 22,30.5 58,43.5 z m 200,128 q 50,0 85,-35 35,-35 35,-85 V -760 H 360 v 240 q 0,50 35,85 35,35 85,35 z m 200,-128 q 36,-13 58,-43.5 22,-30.5 22,-68.5 v -40 h -80 z m -200,-52 z"
         id="path10" /></g><g
       style="fill:#e8eaed"
       id="g12"
       transform="matrix(0.03484106,0,0,0.03164562,374.12722,66.173953)"><path
         d="m 280,-120 v -80 H 440 V -324 Q 391,-335 352.5,-365.5 314,-396 296,-442 221,-451 170.5,-507.5 120,-564 120,-640 v -40 q 0,-33 23.5,-56.5 Q 167,-760 200,-760 h 80 v -80 h 400 v 80 h 80 q 33,0 56.5,23.5 23.5,23.5 23.5,56.5 v 40 q 0,76 -50.5,132.5 Q 739,-451 664,-442 646,-396 607.5,-365.5 569,-335 520,-324 v 124 h 160 v 80 z m 0,-408 v -152 h -80 v 40 q 0,38 22,68.5 22,30.5 58,43.5 z m 200,128 q 50,0 85,-35 35,-35 35,-85 V -760 H 360 v 240 q 0,50 35,85 35,35 85,35 z m 200,-128 q 36,-13 58,-43.5 22,-30.5 22,-68.5 v -40 h -80 z m -200,-52 z"
         id="path11" /></g><g
       style="fill:#e8eaed"
       id="g13"
       transform="matrix(0.03217819,0,0,0.03111304,0.96246802,155.07139)"><path
         d="m 280,-120 v -80 H 440 V -324 Q 391,-335 352.5,-365.5 314,-396 296,-442 221,-451 170.5,-507.5 120,-564 120,-640 v -40 q 0,-33 23.5,-56.5 Q 167,-760 200,-760 h 80 v -80 h 400 v 80 h 80 q 33,0 56.5,23.5 23.5,23.5 23.5,56.5 v 40 q 0,76 -50.5,132.5 Q 739,-451 664,-442 646,-396 607.5,-365.5 569,-335 520,-324 v 124 h 160 v 80 z m 0,-408 v -152 h -80 v 40 q 0,38 22,68.5 22,30.5 58,43.5 z m 200,128 q 50,0 85,-35 35,-35 35,-85 V -760 H 360 v 240 q 0,50 35,85 35,35 85,35 z m 200,-128 q 36,-13 58,-43.5 22,-30.5 22,-68.5 v -40 h -80 z m -200,-52 z"
         id="path12" /></g><g
       style="fill:#e8eaed"
       id="g14"
       transform="matrix(0.03537364,0,0,0.03484106,164.69737,153.21804)"><path
         d="m 280,-120 v -80 H 440 V -324 Q 391,-335 352.5,-365.5 314,-396 296,-442 221,-451 170.5,-507.5 120,-564 120,-640 v -40 q 0,-33 23.5,-56.5 Q 167,-760 200,-760 h 80 v -80 h 400 v 80 h 80 q 33,0 56.5,23.5 23.5,23.5 23.5,56.5 v 40 q 0,76 -50.5,132.5 Q 739,-451 664,-442 646,-396 607.5,-365.5 569,-335 520,-324 v 124 h 160 v 80 z m 0,-408 v -152 h -80 v 40 q 0,38 22,68.5 22,30.5 58,43.5 z m 200,128 q 50,0 85,-35 35,-35 35,-85 V -760 H 360 v 240 q 0,50 35,85 35,35 85,35 z m 200,-128 q 36,-13 58,-43.5 22,-30.5 22,-68.5 v -40 h -80 z m -200,-52 z"
         id="path13" /></g><g
       style="fill:#e8eaed"
       id="g15"
       transform="matrix(0.03145195,0,0,0.03217819,181.75308,41.99589)"><path
         d="m 260.54862,773.74381 -280.000003,-152 v -240 l -159.999997,-88 440,-240.000005 440,240.000005 v 320 h -80 v -276 l -80,44 v 240 z m 0,-332 274,-148 -274,-148 -274.000003,148 z m 0,241 200,-108 v -151 l -200,110 -200.000003,-110 v 151 z m 0,-241 z m 0,90 z m 0,0 z"
         id="path1-2" /><path
         d="m -2775.1955,4360.6356 -280,-152 v -240 l -160,-88 440,-240 440,240 v 320 h -80 v -276 l -80,44 v 240 z m 0,-332 274,-148 -274,-148 -274,148 z m 0,241 200,-108 v -151 l -200,110 -200,-110 v 151 z m 0,-241 z m 0,90 z m 0,0 z"
         id="path15" /></g><g
       style="fill:#e8eaed"
       id="g16"
       transform="matrix(0.02243206,0,0,0.02818387,449.68047,184.44909)"><path
         d="m 560,-360 q 17,0 29.5,-12.5 Q 602,-385 602,-402 602,-419 589.5,-431.5 577,-444 560,-444 q -17,0 -29.5,12.5 -12.5,12.5 -12.5,29.5 0,17 12.5,29.5 12.5,12.5 29.5,12.5 z m -30,-128 h 60 q 0,-29 6,-42.5 6,-13.5 28,-35.5 30,-30 40,-48.5 10,-18.5 10,-43.5 0,-45 -31.5,-73.5 Q 611,-760 560,-760 q -41,0 -71.5,23 -30.5,23 -42.5,61 l 54,22 q 9,-25 24.5,-37.5 15.5,-12.5 35.5,-12.5 24,0 39,13.5 15,13.5 15,36.5 0,14 -8,26.5 -8,12.5 -28,31.5 -33,29 -40.5,45.5 -7.5,16.5 -7.5,62.5 z m -210,248 q -33,0 -56.5,-23.5 Q 240,-287 240,-320 v -480 q 0,-33 23.5,-56.5 Q 287,-880 320,-880 h 480 q 33,0 56.5,23.5 23.5,23.5 23.5,56.5 v 480 q 0,33 -23.5,56.5 Q 833,-240 800,-240 Z m 0,-80 H 800 V -800 H 320 Z M 160,-80 q -33,0 -56.5,-23.5 Q 80,-127 80,-160 v -560 h 80 v 560 h 560 v 80 z m 160,-720 v 480 z"
         id="path1-42" /></g><g
       style="fill:#e8eaed"
       id="g17"
       transform="matrix(0.02243206,0,0,0.02818387,168.60861,233.53122)"><path
         d="m 560,-360 q 17,0 29.5,-12.5 Q 602,-385 602,-402 602,-419 589.5,-431.5 577,-444 560,-444 q -17,0 -29.5,12.5 -12.5,12.5 -12.5,29.5 0,17 12.5,29.5 12.5,12.5 29.5,12.5 z m -30,-128 h 60 q 0,-29 6,-42.5 6,-13.5 28,-35.5 30,-30 40,-48.5 10,-18.5 10,-43.5 0,-45 -31.5,-73.5 Q 611,-760 560,-760 q -41,0 -71.5,23 -30.5,23 -42.5,61 l 54,22 q 9,-25 24.5,-37.5 15.5,-12.5 35.5,-12.5 24,0 39,13.5 15,13.5 15,36.5 0,14 -8,26.5 -8,12.5 -28,31.5 -33,29 -40.5,45.5 -7.5,16.5 -7.5,62.5 z m -210,248 q -33,0 -56.5,-23.5 Q 240,-287 240,-320 v -480 q 0,-33 23.5,-56.5 Q 287,-880 320,-880 h 480 q 33,0 56.5,23.5 23.5,23.5 23.5,56.5 v 480 q 0,33 -23.5,56.5 Q 833,-240 800,-240 Z m 0,-80 H 800 V -800 H 320 Z M 160,-80 q -33,0 -56.5,-23.5 Q 80,-127 80,-160 v -560 h 80 v 560 h 560 v 80 z m 160,-720 v 480 z"
         id="path16" /></g><g
       style="fill:#e8eaed"
       id="g18"
       transform="matrix(0.02243206,0,0,0.02818387,260.25415,108.52518)"><path
         d="m 560,-360 q 17,0 29.5,-12.5 Q 602,-385 602,-402 602,-419 589.5,-431.5 577,-444 560,-444 q -17,0 -29.5,12.5 -12.5,12.5 -12.5,29.5 0,17 12.5,29.5 12.5,12.5 29.5,12.5 z m -30,-128 h 60 q 0,-29 6,-42.5 6,-13.5 28,-35.5 30,-30 40,-48.5 10,-18.5 10,-43.5 0,-45 -31.5,-73.5 Q 611,-760 560,-760 q -41,0 -71.5,23 -30.5,23 -42.5,61 l 54,22 q 9,-25 24.5,-37.5 15.5,-12.5 35.5,-12.5 24,0 39,13.5 15,13.5 15,36.5 0,14 -8,26.5 -8,12.5 -28,31.5 -33,29 -40.5,45.5 -7.5,16.5 -7.5,62.5 z m -210,248 q -33,0 -56.5,-23.5 Q 240,-287 240,-320 v -480 q 0,-33 23.5,-56.5 Q 287,-880 320,-880 h 480 q 33,0 56.5,23.5 23.5,23.5 23.5,56.5 v 480 q 0,33 -23.5,56.5 Q 833,-240 800,-240 Z m 0,-80 H 800 V -800 H 320 Z M 160,-80 q -33,0 -56.5,-23.5 Q 80,-127 80,-160 v -560 h 80 v 560 h 560 v 80 z m 160,-720 v 480 z"
         id="path17" /></g><g
       style="fill:#e8eaed"
       id="g19"
       transform="matrix(0.02243206,0,0,0.02818387,98.053063,33.751629)"><path
         d="m 560,-360 q 17,0 29.5,-12.5 Q 602,-385 602,-402 602,-419 589.5,-431.5 577,-444 560,-444 q -17,0 -29.5,12.5 -12.5,12.5 -12.5,29.5 0,17 12.5,29.5 12.5,12.5 29.5,12.5 z m -30,-128 h 60 q 0,-29 6,-42.5 6,-13.5 28,-35.5 30,-30 40,-48.5 10,-18.5 10,-43.5 0,-45 -31.5,-73.5 Q 611,-760 560,-760 q -41,0 -71.5,23 -30.5,23 -42.5,61 l 54,22 q 9,-25 24.5,-37.5 15.5,-12.5 35.5,-12.5 24,0 39,13.5 15,13.5 15,36.5 0,14 -8,26.5 -8,12.5 -28,31.5 -33,29 -40.5,45.5 -7.5,16.5 -7.5,62.5 z m -210,248 q -33,0 -56.5,-23.5 Q 240,-287 240,-320 v -480 q 0,-33 23.5,-56.5 Q 287,-880 320,-880 h 480 q 33,0 56.5,23.5 23.5,23.5 23.5,56.5 v 480 q 0,33 -23.5,56.5 Q 833,-240 800,-240 Z m 0,-80 H 800 V -800 H 320 Z M 160,-80 q -33,0 -56.5,-23.5 Q 80,-127 80,-160 v -560 h 80 v 560 h 560 v 80 z m 160,-720 v 480 z"
         id="path18" /></g><g
       style="fill:#e8eaed"
       id="g20"
       transform="matrix(0.02753025,0,0,0.02698558,87.365486,279.63007)"><path
         d="m 560,-564 v -68 q 33,-14 67.5,-21 34.5,-7 72.5,-7 26,0 51,4 25,4 49,10 v 64 q -24,-9 -48.5,-13.5 -24.5,-4.5 -51.5,-4.5 -38,0 -73,9.5 -35,9.5 -67,26.5 z m 0,220 v -68 q 33,-14 67.5,-21 34.5,-7 72.5,-7 26,0 51,4 25,4 49,10 v 64 q -24,-9 -48.5,-13.5 -24.5,-4.5 -51.5,-4.5 -38,0 -73,9 -35,9 -67,27 z m 0,-110 v -68 q 33,-14 67.5,-21 34.5,-7 72.5,-7 26,0 51,4 25,4 49,10 v 64 q -24,-9 -48.5,-13.5 -24.5,-4.5 -51.5,-4.5 -38,0 -73,9.5 -35,9.5 -67,26.5 z m -300,134 q 47,0 91.5,10.5 44.5,10.5 88.5,31.5 v -394 q -41,-24 -87,-36 -46,-12 -93,-12 -36,0 -71.5,7 -35.5,7 -68.5,21 v 396 q 35,-12 69.5,-18 34.5,-6 70.5,-6 z m 260,42 q 44,-21 88.5,-31.5 44.5,-10.5 91.5,-10.5 36,0 70.5,6 34.5,6 69.5,18 v -396 q -33,-14 -68.5,-21 -35.5,-7 -71.5,-7 -47,0 -93,12 -46,12 -87,36 z m -40,118 q -48,-38 -104,-59 -56,-21 -116,-21 -42,0 -82.5,11 -40.5,11 -77.5,31 -21,11 -40.5,-1 Q 40,-211 40,-234 v -482 q 0,-11 5.5,-21 5.5,-10 16.5,-15 46,-24 96,-36 50,-12 102,-12 58,0 113.5,15 55.5,15 106.5,45 51,-30 106.5,-45 55.5,-15 113.5,-15 52,0 102,12 50,12 96,36 11,5 16.5,15 5.5,10 5.5,21 v 482 q 0,23 -19.5,35 -19.5,12 -40.5,1 -37,-20 -77.5,-31 -40.5,-11 -82.5,-11 -60,0 -116,21 -56,21 -104,59 z M 280,-494 Z"
         id="path19" /></g><g
       style="fill:#e8eaed"
       id="g21"
       transform="matrix(0.03014472,0,0,0.02898274,253.67615,272.97715)"><path
         d="M 480,-120 200,-272 v -240 l -160,-88 440,-240 440,240 v 320 h -80 v -276 l -80,44 v 240 z m 0,-332 274,-148 -274,-148 -274,148 z m 0,241 200,-108 V -470 L 480,-360 280,-470 v 151 z m 0,-241 z m 0,90 z m 0,0 z"
         id="path1-1" /></g></g></svg>
